<svg width="14" height="16" viewBox="0 0 14 16" fill="none" xmlns="http://www.w3.org/2000/svg">
<path d="M7.15793 4.52075C5.29394 4.52075 3.79043 6.02368 3.79043 7.88696C3.79043 9.75024 5.29394 11.2532 7.15793 11.2532C9.02192 11.2532 10.5254 9.75024 10.5254 7.88696C10.5254 6.02368 9.02192 4.52075 7.15793 4.52075ZM7.15793 10.0754C5.95337 10.0754 4.96862 9.09399 4.96862 7.88696C4.96862 6.67993 5.95044 5.69849 7.15793 5.69849C8.36542 5.69849 9.34724 6.67993 9.34724 7.88696C9.34724 9.09399 8.36249 10.0754 7.15793 10.0754ZM11.4486 4.38306C11.4486 4.81958 11.0969 5.16821 10.6632 5.16821C10.2265 5.16821 9.87771 4.81665 9.87771 4.38306C9.87771 3.94946 10.2294 3.5979 10.6632 3.5979C11.0969 3.5979 11.4486 3.94946 11.4486 4.38306ZM13.679 5.17993C13.6291 4.12817 13.3888 3.19653 12.618 2.42896C11.8501 1.66138 10.9181 1.42114 9.86599 1.36841C8.78159 1.30688 5.53133 1.30688 4.44693 1.36841C3.39771 1.41821 2.46571 1.65845 1.69491 2.42603C0.924109 3.1936 0.686714 4.12524 0.633959 5.177C0.572412 6.26099 0.572412 9.51001 0.633959 10.594C0.683783 11.6458 0.924109 12.5774 1.69491 13.345C2.46571 14.1125 3.39478 14.3528 4.44693 14.4055C5.53133 14.467 8.78159 14.467 9.86599 14.4055C10.9181 14.3557 11.8501 14.1155 12.618 13.345C13.3859 12.5774 13.6262 11.6458 13.679 10.594C13.7405 9.51001 13.7405 6.26392 13.679 5.17993ZM12.278 11.7571C12.0494 12.3313 11.6069 12.7737 11.0295 13.0051C10.1649 13.3479 8.11337 13.2688 7.15793 13.2688C6.20249 13.2688 4.14799 13.345 3.28634 13.0051C2.7119 12.7766 2.26935 12.3342 2.03781 11.7571C1.69491 10.8928 1.77404 8.84204 1.77404 7.88696C1.77404 6.93188 1.69784 4.87817 2.03781 4.01685C2.26642 3.44263 2.70897 3.00024 3.28634 2.7688C4.15092 2.42603 6.20249 2.50513 7.15793 2.50513C8.11337 2.50513 10.1679 2.42895 11.0295 2.7688C11.604 2.99731 12.0465 3.4397 12.278 4.01685C12.6209 4.8811 12.5418 6.93188 12.5418 7.88696C12.5418 8.84204 12.6209 10.8958 12.278 11.7571Z" fill="white"/>
</svg>
