<svg width="14" height="14" viewBox="0 0 14 14" fill="none" xmlns="http://www.w3.org/2000/svg">
<g clip-path="url(#clip0_1_73)">
<path d="M2.92024 10.3371C2.91056 10.3371 2.89605 10.3322 2.87671 10.3226C2.46079 10.0469 2.05333 9.69626 1.65433 9.27066C1.25534 8.84506 0.918004 8.4098 0.642334 7.96486C0.540771 7.81977 0.48999 7.65291 0.48999 7.4643C0.48999 7.42077 0.494827 7.37483 0.504499 7.32646C0.514172 7.2781 0.523844 7.23457 0.533517 7.19588C0.54319 7.15719 0.560117 7.11367 0.584298 7.0653C0.60848 7.01694 0.629034 6.97825 0.645961 6.94923C0.662888 6.92021 0.688279 6.87911 0.722133 6.82591C0.755987 6.77271 0.780169 6.73643 0.794678 6.71709C0.809187 6.69774 0.838205 6.66026 0.881731 6.60464C0.925258 6.54903 0.951858 6.51396 0.96153 6.49945C1.85141 5.28554 2.94442 4.40291 4.24055 3.85158C3.70855 2.89399 3.44256 2.38376 3.44256 2.32088C3.44256 2.22899 3.48367 2.15887 3.56588 2.1105C4.12689 1.80098 4.43642 1.64622 4.49445 1.64622C4.58151 1.64622 4.64922 1.68491 4.69758 1.76229L5.59713 3.42356C6.04207 3.33167 6.50636 3.28573 6.98999 3.28573C8.27645 3.28573 9.47948 3.61822 10.5991 4.28322C11.7187 4.94821 12.634 5.84172 13.3449 6.96374C13.4416 7.11367 13.49 7.28052 13.49 7.4643C13.49 7.64808 13.4416 7.81493 13.3449 7.96486C12.9048 8.65161 12.3764 9.26461 11.7598 9.80386C11.1432 10.3431 10.4697 10.7675 9.73943 11.077C10.2714 12.0346 10.5374 12.5448 10.5374 12.6077C10.5374 12.7044 10.4963 12.7746 10.4141 12.8181C9.85309 13.1276 9.54598 13.2824 9.49278 13.2824C9.40089 13.2824 9.33076 13.2437 9.2824 13.1663L8.38285 11.505L7.91856 10.6418L4.69758 4.69309L4.74836 4.64231C4.46785 4.75838 4.22846 4.87204 4.03017 4.98327C4.04468 5.00745 4.35178 5.5733 4.95149 6.68082C5.55119 7.78833 6.1388 8.87408 6.71432 9.93807C7.28984 11.0021 7.5776 11.5413 7.5776 11.5558C7.5776 11.5897 7.55584 11.6114 7.51231 11.6211C7.44944 11.6356 7.27533 11.6429 6.98999 11.6429C6.71432 11.6429 6.56923 11.6259 6.55472 11.5921L3.24669 5.49108C3.05807 5.6265 2.85978 5.79094 2.65182 5.98439C2.76789 6.19235 3.28538 7.14389 4.20428 8.83902C5.12317 10.5341 5.58262 11.3914 5.58262 11.4107C5.58262 11.4591 5.55602 11.4833 5.50282 11.4833C5.43512 11.4833 5.23562 11.4301 4.90433 11.3237C4.57304 11.2173 4.39773 11.1496 4.37838 11.1205L3.60941 9.69142L1.98441 6.69533C1.77161 6.95165 1.583 7.20797 1.41856 7.4643C1.42823 7.47881 1.47176 7.53926 1.54914 7.64566C1.62652 7.75206 1.68214 7.83428 1.71599 7.89231L2.99278 10.2645C2.99278 10.3129 2.9686 10.3371 2.92024 10.3371ZM8.94144 9.59711L9.29691 10.2573C10.6172 9.72044 11.7054 8.78945 12.5614 7.4643C11.6909 6.12464 10.5809 5.18398 9.23162 4.64231C9.55565 4.95184 9.80472 5.31093 9.97883 5.7196C10.1529 6.12827 10.24 6.55507 10.24 7.00001C10.24 7.51266 10.1263 7.9975 9.89903 8.45453C9.67172 8.91156 9.35253 9.29242 8.94144 9.59711ZM6.74334 4.89622C6.74334 4.89622 6.72641 4.91315 6.69256 4.947C6.6587 4.98085 6.64178 5.04614 6.64178 5.14287C6.64178 5.2396 6.67563 5.32181 6.74334 5.38952C6.81105 5.45723 6.89326 5.49108 6.98999 5.49108C7.40591 5.49108 7.76138 5.63859 8.0564 5.93361C8.35141 6.22862 8.49892 6.58409 8.49892 7.00001C8.49892 7.09674 8.53277 7.17896 8.60048 7.24666C8.66819 7.31437 8.75041 7.34823 8.84713 7.34823C8.94386 7.34823 9.02608 7.31437 9.09378 7.24666C9.16149 7.17896 9.19535 7.09674 9.19535 7.00001C9.19535 6.39064 8.98013 5.87073 8.5497 5.4403C8.11927 5.00987 7.59937 4.79466 6.98999 4.79466C6.89326 4.79466 6.81105 4.82851 6.74334 4.89622ZM9.29691 4.67133L9.23162 4.64231L9.2824 4.69309L9.29691 4.67133Z" fill="#848484"/>
</g>
<defs>
<clipPath id="clip0_1_73">
<rect width="13.11" height="13" fill="white" transform="matrix(1 0 0 -1 0.434998 13.5)"/>
</clipPath>
</defs>
</svg>
