<svg width="15" height="14" viewBox="0 0 15 14" fill="none" xmlns="http://www.w3.org/2000/svg">
<g clip-path="url(#clip0_1_43)">
<path d="M12.7472 12.5714C12.5344 12.5714 12.214 12.5629 11.786 12.546C11.358 12.5291 11.0352 12.5206 10.8175 12.5206C10.6047 12.5206 10.2855 12.5291 9.85995 12.546C9.43435 12.5629 9.11516 12.5714 8.90236 12.5714C8.78629 12.5714 8.69682 12.5218 8.63395 12.4227C8.57107 12.3236 8.53964 12.2135 8.53964 12.0926C8.53964 11.9427 8.58075 11.8315 8.66296 11.7589C8.74518 11.6864 8.83949 11.6453 8.94589 11.6356C9.05229 11.6259 9.17561 11.609 9.31587 11.5848C9.45612 11.5606 9.56494 11.5244 9.64232 11.476C9.80191 11.3744 9.88171 11.0359 9.88171 10.4604L9.87446 7.62387C9.87446 7.5223 9.87204 7.44734 9.8672 7.39898C9.80433 7.37963 9.68342 7.36996 9.50448 7.36996H4.60772C4.42394 7.36996 4.30061 7.37963 4.23774 7.39898C4.2329 7.44734 4.23049 7.5223 4.23049 7.62387L4.22323 10.3153C4.22323 11.002 4.3127 11.3986 4.49165 11.505C4.56903 11.5534 4.6851 11.5848 4.83986 11.5993C4.99462 11.6138 5.13246 11.6223 5.25337 11.6247C5.37427 11.6271 5.48309 11.6634 5.57982 11.7335C5.67654 11.8036 5.72491 11.9137 5.72491 12.0636C5.72491 12.1893 5.69468 12.3054 5.63422 12.4118C5.57377 12.5182 5.48551 12.5714 5.36944 12.5714C5.14213 12.5714 4.8048 12.5629 4.35744 12.546C3.91008 12.5291 3.57517 12.5206 3.3527 12.5206C3.14473 12.5206 2.83521 12.5291 2.42412 12.546C2.01304 12.5629 1.70593 12.5714 1.50281 12.5714C1.39157 12.5714 1.30573 12.5206 1.24527 12.4191C1.18482 12.3175 1.15459 12.2087 1.15459 12.0926C1.15459 11.9475 1.19207 11.8387 1.26704 11.7662C1.342 11.6936 1.42905 11.6513 1.5282 11.6392C1.62734 11.6271 1.7422 11.609 1.87279 11.5848C2.00337 11.5606 2.10493 11.5244 2.17747 11.476C2.33707 11.3648 2.41687 11.019 2.41687 10.4386L2.40962 10.0251V4.12721C2.40962 4.11271 2.41082 4.04983 2.41324 3.9386C2.41566 3.82736 2.41566 3.7391 2.41324 3.67381C2.41082 3.60852 2.4072 3.51542 2.40236 3.39451C2.39752 3.27361 2.38906 3.17204 2.37697 3.08983C2.36488 3.00761 2.34916 2.91935 2.32982 2.82504C2.31047 2.73073 2.28387 2.65456 2.25002 2.59652C2.21616 2.53849 2.17747 2.49496 2.13395 2.46594C2.0614 2.41758 1.95258 2.38856 1.8075 2.37889C1.66241 2.36922 1.53424 2.36438 1.42301 2.36438C1.31177 2.36438 1.21263 2.33053 1.12558 2.26282C1.03852 2.19511 0.994995 2.08629 0.994995 1.93637C0.994995 1.81062 1.02401 1.69455 1.08205 1.58815C1.14008 1.48175 1.22714 1.42855 1.34321 1.42855C1.56568 1.42855 1.90059 1.43702 2.34795 1.45394C2.79531 1.47087 3.13023 1.47934 3.3527 1.47934C3.55582 1.47934 3.86172 1.47087 4.27039 1.45394C4.67905 1.43702 4.98495 1.42855 5.18808 1.42855C5.30898 1.42855 5.39966 1.48175 5.46012 1.58815C5.52057 1.69455 5.5508 1.81062 5.5508 1.93637C5.5508 2.08146 5.50969 2.18665 5.42747 2.25194C5.34526 2.31723 5.25216 2.35229 5.14818 2.35713C5.0442 2.36196 4.9245 2.37163 4.78908 2.38614C4.65366 2.40065 4.54968 2.43209 4.47714 2.48045C4.30787 2.58201 4.22323 2.96892 4.22323 3.64117L4.23049 5.96259C4.23049 6.06416 4.2329 6.14154 4.23774 6.19474C4.30061 6.20925 4.39492 6.2165 4.52066 6.2165H9.59154C9.71244 6.2165 9.80433 6.20925 9.8672 6.19474C9.87204 6.14154 9.87446 6.06416 9.87446 5.96259L9.88171 3.64117C9.88171 2.96892 9.79708 2.58201 9.62781 2.48045C9.54075 2.42725 9.39929 2.39703 9.20342 2.38977C9.00755 2.38252 8.84795 2.35108 8.72463 2.29546C8.6013 2.23985 8.53964 2.12015 8.53964 1.93637C8.53964 1.81062 8.56986 1.69455 8.63032 1.58815C8.69077 1.48175 8.78145 1.42855 8.90236 1.42855C9.11516 1.42855 9.43435 1.43702 9.85995 1.45394C10.2855 1.47087 10.6047 1.47934 10.8175 1.47934C11.0255 1.47934 11.3374 1.47087 11.7534 1.45394C12.1693 1.43702 12.4812 1.42855 12.6892 1.42855C12.8101 1.42855 12.9008 1.48175 12.9612 1.58815C13.0217 1.69455 13.0519 1.81062 13.0519 1.93637C13.0519 2.08146 13.0096 2.18785 12.925 2.25556C12.8403 2.32327 12.7436 2.35833 12.6348 2.36075C12.526 2.36317 12.4014 2.37043 12.2612 2.38252C12.1209 2.39461 12.0145 2.42483 11.942 2.4732C11.7727 2.58443 11.6881 2.97376 11.6881 3.64117L11.6953 10.4821C11.6953 11.0576 11.7775 11.3962 11.942 11.4978C12.0194 11.5461 12.1306 11.5788 12.2757 11.5957C12.4208 11.6126 12.5501 11.6235 12.6638 11.6283C12.7775 11.6332 12.8778 11.6706 12.9649 11.7408C13.0519 11.8109 13.0954 11.9185 13.0954 12.0636C13.0954 12.1893 13.0664 12.3054 13.0084 12.4118C12.9504 12.5182 12.8633 12.5714 12.7472 12.5714Z" fill="#848484"/>
</g>
<defs>
<clipPath id="clip0_1_43">
<rect width="13.11" height="13" fill="white" transform="matrix(1 0 0 -1 0.940002 13.5)"/>
</clipPath>
</defs>
</svg>
