<svg width="28" height="31" viewBox="0 0 28 31" fill="none" xmlns="http://www.w3.org/2000/svg">
<g clip-path="url(#clip0_1_7)">
<path d="M17.1275 20.3717L18.8351 23.7868C18.1878 25.7846 17.0159 27.4029 15.3195 28.6417C13.6231 29.8806 11.7313 30.5 9.64426 30.5C7.90319 30.5 6.29326 30.0675 4.81446 29.2026C3.33567 28.3376 2.16379 27.1657 1.29884 25.6869C0.433881 24.2081 0.00140381 22.5982 0.00140381 20.8571C0.00140381 18.8371 0.584551 16.9955 1.75085 15.3326C2.91714 13.6696 4.44895 12.4922 6.34627 11.8002L6.63087 13.9933C5.26926 14.596 4.18109 15.5195 3.36636 16.764C2.55163 18.0084 2.14426 19.3728 2.14426 20.8571C2.14426 22.9219 2.87808 24.6881 4.34571 26.1557C5.81335 27.6233 7.57953 28.3571 9.64426 28.3571C11.0505 28.3571 12.3479 27.9944 13.5366 27.269C14.7252 26.5435 15.6459 25.5642 16.2988 24.3309C16.9517 23.0977 17.228 21.7779 17.1275 20.3717ZM26.3016 22.0458L27.2726 23.9542L22.9869 26.0971C22.8418 26.1752 22.68 26.2143 22.5014 26.2143C22.055 26.2143 21.7369 26.019 21.5472 25.6283L17.546 17.6429H9.64426C9.3764 17.6429 9.13924 17.5508 8.93277 17.3666C8.72629 17.1825 8.60631 16.9565 8.57283 16.6886L6.96569 3.64732C6.94337 3.45759 6.97685 3.22322 7.06614 2.9442C7.22239 2.375 7.54047 1.91462 8.02038 1.56306C8.50029 1.2115 9.04158 1.03572 9.64426 1.03572C10.3809 1.03572 11.0114 1.29799 11.536 1.82255C12.0606 2.3471 12.3228 2.97768 12.3228 3.71429C12.3228 4.48438 12.0327 5.14007 11.4523 5.68136C10.8719 6.22266 10.2023 6.45424 9.44337 6.37612L10.0628 11.2143H17.1443V13.3571H10.3306L10.5985 15.5H18.2157C18.6621 15.5 18.9802 15.6953 19.1699 16.0859L22.9869 23.7031L26.3016 22.0458Z" fill="#848484"/>
</g>
<defs>
<clipPath id="clip0_1_7">
<rect width="27.86" height="30" fill="white" transform="matrix(1 0 0 -1 0 30.5)"/>
</clipPath>
</defs>
</svg>
