<svg width="13" height="14" viewBox="0 0 13 14" fill="none" xmlns="http://www.w3.org/2000/svg">
<g clip-path="url(#clip0_1_58)">
<path d="M7.89287 6.30357V6.76786C7.89287 6.83073 7.86989 6.88514 7.82395 6.93108C7.778 6.97703 7.72359 7 7.66072 7H6.03572V8.625C6.03572 8.68787 6.01275 8.74228 5.96681 8.78823C5.92086 8.83417 5.86645 8.85714 5.80358 8.85714H5.33929C5.27642 8.85714 5.22201 8.83417 5.17607 8.78823C5.13012 8.74228 5.10715 8.68787 5.10715 8.625V7H3.48215C3.41928 7 3.36487 6.97703 3.31893 6.93108C3.27298 6.88514 3.25001 6.83073 3.25001 6.76786V6.30357C3.25001 6.2407 3.27298 6.18629 3.31893 6.14035C3.36487 6.0944 3.41928 6.07143 3.48215 6.07143H5.10715V4.44643C5.10715 4.38356 5.13012 4.32915 5.17607 4.2832C5.22201 4.23726 5.27642 4.21429 5.33929 4.21429H5.80358C5.86645 4.21429 5.92086 4.23726 5.96681 4.2832C6.01275 4.32915 6.03572 4.38356 6.03572 4.44643V6.07143H7.66072C7.72359 6.07143 7.778 6.0944 7.82395 6.14035C7.86989 6.18629 7.89287 6.2407 7.89287 6.30357ZM7.86748 8.83175C7.86748 8.83175 8.02647 8.67276 8.34446 8.35477C8.66244 8.03678 8.82144 7.43043 8.82144 6.53571C8.82144 5.641 8.50345 4.87565 7.86748 4.23968C7.2315 3.6037 6.46615 3.28571 5.57144 3.28571C4.67672 3.28571 3.91137 3.6037 3.2754 4.23968C2.63942 4.87565 2.32144 5.641 2.32144 6.53571C2.32144 7.43043 2.63942 8.19578 3.2754 8.83175C3.91137 9.46773 4.67672 9.78571 5.57144 9.78571C6.46615 9.78571 7.2315 9.46773 7.86748 8.83175ZM12.2673 11.9185C12.4463 12.0975 12.5357 12.3151 12.5357 12.5714C12.5357 12.8278 12.445 13.0466 12.2637 13.228C12.0823 13.4093 11.8635 13.5 11.6072 13.5C11.346 13.5 11.1284 13.4081 10.9542 13.2243L8.46597 10.7433C7.60027 11.343 6.63543 11.6429 5.57144 11.6429C4.87984 11.6429 4.21848 11.5086 3.58734 11.2402C2.9562 10.9718 2.41212 10.6091 1.95509 10.1521C1.49806 9.69503 1.13533 9.15095 0.866917 8.51981C0.598502 7.88867 0.464294 7.22731 0.464294 6.53571C0.464294 5.84412 0.598502 5.18276 0.866917 4.55162C1.13533 3.92048 1.49806 3.3764 1.95509 2.91936C2.41212 2.46233 2.9562 2.09961 3.58734 1.83119C4.21848 1.56278 4.87984 1.42857 5.57144 1.42857C6.26303 1.42857 6.92439 1.56278 7.55553 1.83119C8.18667 2.09961 8.73076 2.46233 9.18779 2.91936C9.64482 3.3764 10.0075 3.92048 10.276 4.55162C10.5444 5.18276 10.6786 5.84412 10.6786 6.53571C10.6786 7.5997 10.3787 8.56455 9.77903 9.43025L12.2673 11.9185Z" fill="#848484"/>
</g>
<defs>
<clipPath id="clip0_1_58">
<rect width="12.19" height="13" fill="white" transform="matrix(1 0 0 -1 0.405029 13.5)"/>
</clipPath>
</defs>
</svg>
