<svg width="54" height="2" viewBox="0 0 54 2" fill="none" xmlns="http://www.w3.org/2000/svg">
<g clip-path="url(#clip0_1_182)">
<path d="M13.9884 1.07901C13.9884 1.07901 14.995 1.06944 17.0082 1.05028C19.0213 1.03113 22.4118 1.02155 27.1795 1.02155C31.9472 1.02155 36.3442 1.04071 40.3706 1.07901C44.3969 1.11732 47.5849 1.1693 49.9345 1.23495C52.2842 1.30059 53.459 1.37228 53.459 1.45002C53.459 1.52775 52.2842 1.59944 49.9345 1.66508C47.5849 1.73073 44.3969 1.78271 40.3706 1.82102C36.3442 1.85932 31.9472 1.87848 27.1795 1.87848C22.4118 1.87848 18.0147 1.85932 13.9884 1.82102C9.96209 1.78271 6.7741 1.73073 4.42446 1.66508C2.07482 1.59944 0.899994 1.52775 0.899994 1.45002C0.899994 1.37228 2.07482 1.30059 4.42446 1.23495C6.7741 1.1693 9.96209 1.11732 13.9884 1.07901ZM36.5552 1.31221C36.5096 1.31259 36.4013 1.31435 36.2302 1.31751C36.0591 1.32068 35.9051 1.32244 35.7682 1.32281C35.8139 1.32281 35.8652 1.32188 35.9222 1.32003C35.9792 1.31817 36.0363 1.31612 36.0933 1.31389C36.1503 1.31166 36.1903 1.31036 36.2131 1.30998C36.3499 1.30738 36.6009 1.30459 36.9659 1.30161C37.2852 1.29938 37.8783 1.29715 38.7452 1.29492C39.5208 1.29194 40.1025 1.29399 40.4903 1.30106C40.4447 1.30031 40.5531 1.2979 40.8154 1.2938C41.0777 1.28971 41.2431 1.28748 41.3116 1.28711C41.38 1.28637 41.5511 1.28553 41.8248 1.2846C42.0986 1.28367 42.2697 1.28227 42.3381 1.28041L42.4065 1.26814C42.1328 1.26851 41.9332 1.26721 41.8077 1.26424C41.6823 1.26126 41.6081 1.25736 41.5853 1.25252C41.5853 1.25326 41.5169 1.25475 41.38 1.25698C41.38 1.25438 41.3287 1.25289 41.226 1.25252C41.1234 1.25215 40.9922 1.25233 40.8325 1.25308C40.6728 1.25382 40.5702 1.25401 40.5245 1.25364C40.2964 1.25252 40.1253 1.25113 40.0113 1.24945C39.8972 1.24778 39.806 1.24471 39.7375 1.24025C39.6691 1.23578 39.6235 1.23299 39.6007 1.23188C39.555 1.23002 39.4467 1.22797 39.2756 1.22574C39.1045 1.22351 38.9961 1.22165 38.9505 1.22016C38.9277 1.21942 38.8992 1.2184 38.865 1.21709C38.8307 1.21579 38.7965 1.21458 38.7623 1.21347C38.7281 1.21235 38.6825 1.21133 38.6254 1.2104C38.5684 1.20947 38.5057 1.209 38.4372 1.209C38.3688 1.209 38.289 1.20993 38.1977 1.21179C38.1065 1.21365 38.0209 1.21551 37.9411 1.21737C37.8612 1.21923 37.8099 1.22016 37.7871 1.22016C37.7187 1.21942 37.6502 1.21914 37.5818 1.21933C37.5134 1.21951 37.462 1.2197 37.4278 1.21988C37.3936 1.22007 37.3423 1.22063 37.2738 1.22156C37.2054 1.22249 37.1484 1.22314 37.1027 1.22351C37.0343 1.22425 36.9373 1.22481 36.8119 1.22518C36.6864 1.22555 36.5895 1.22593 36.521 1.2263C36.8632 1.22444 36.8518 1.22239 36.4868 1.22016C36.2587 1.21867 36.0762 1.21812 35.9393 1.21849C36.1446 1.217 36.2302 1.21477 36.196 1.21179C36.1617 1.20882 36.0648 1.20621 35.9051 1.20398H36.0762C36.0534 1.2025 35.9564 1.20091 35.7853 1.19924C35.6142 1.19757 35.4146 1.19599 35.1865 1.1945C34.9584 1.19301 34.8101 1.1919 34.7417 1.19115C34.5592 1.18929 34.1714 1.18753 33.5783 1.18585C32.9852 1.18418 32.6088 1.18408 32.4491 1.18557C32.335 1.1878 32.2837 1.18976 32.2951 1.19143C32.3065 1.1931 32.3521 1.19571 32.432 1.19924C32.5118 1.20277 32.5517 1.2051 32.5517 1.20621C32.5745 1.20845 32.5118 1.21086 32.3635 1.21347C32.2153 1.21607 32.1411 1.2183 32.1411 1.22016C32.1411 1.22277 32.3008 1.22565 32.6202 1.22881C32.9395 1.23197 33.0536 1.23597 32.9623 1.2408C32.8939 1.24378 32.7114 1.24675 32.4149 1.24973C32.1183 1.25271 31.9358 1.25494 31.8674 1.25643C31.7533 1.2594 31.7362 1.26284 31.816 1.26675C31.8959 1.27065 32.0156 1.27372 32.1753 1.27595C32.221 1.2767 32.2381 1.27744 32.2267 1.27818C32.2153 1.27893 32.1753 1.27976 32.1069 1.28069C32.0385 1.28162 31.9757 1.28237 31.9187 1.28293C31.8617 1.28348 31.7875 1.28413 31.6963 1.28488L31.5936 1.28599C31.3427 1.28785 31.1089 1.28674 30.8922 1.28265C30.6754 1.27856 30.5215 1.27372 30.4302 1.26814C30.2705 1.25884 30.088 1.25326 29.8827 1.2514C29.358 1.24843 29.0273 1.24861 28.8904 1.25196C28.7763 1.24713 28.3087 1.24229 27.4875 1.23746C26.9171 1.23411 26.2556 1.23337 25.5028 1.23523C25.6397 1.23485 25.6397 1.23206 25.5028 1.22686C25.3431 1.22128 25.1264 1.21905 24.8527 1.22016C24.9211 1.21793 24.9667 1.21468 24.9895 1.2104C25.0123 1.20612 25.0237 1.20361 25.0237 1.20287C25.0922 1.19803 25.2291 1.19375 25.4344 1.19004C25.4572 1.18966 25.537 1.18808 25.6739 1.18529C25.8108 1.1825 25.9191 1.17999 25.999 1.17776C26.0788 1.17553 26.0845 1.17441 26.0161 1.17441C26.8145 1.1759 27.3848 1.17386 27.727 1.16828C27.841 1.16642 27.9722 1.16326 28.1205 1.15879C28.2688 1.15433 28.3885 1.15117 28.4798 1.14931C28.6851 1.14708 28.8448 1.14605 28.9588 1.14624C29.0729 1.14643 29.2383 1.14745 29.455 1.14931C29.6717 1.15117 29.8371 1.1521 29.9512 1.1521C30.2705 1.15247 30.4473 1.15042 30.4815 1.14596C30.5158 1.1415 30.4302 1.13778 30.2249 1.1348C30.4986 1.13518 30.5329 1.13201 30.3276 1.12532C30.2363 1.12272 30.1451 1.12104 30.0538 1.1203C29.7801 1.11881 29.4721 1.11974 29.1299 1.12309C28.9474 1.12458 28.9702 1.12606 29.1984 1.12755C29.1755 1.12718 29.0672 1.12913 28.8733 1.13341C28.6794 1.13769 28.4912 1.14094 28.3087 1.14317C28.1262 1.1454 27.9437 1.14447 27.7612 1.14038C27.7384 1.14001 27.6757 1.1375 27.573 1.13285C27.4703 1.1282 27.362 1.12569 27.2479 1.12532C27.0654 1.12532 26.8829 1.12811 26.7004 1.13369C26.7689 1.13071 26.6434 1.12792 26.324 1.12532C26.0047 1.12272 25.7309 1.12123 25.5028 1.12086C25.9362 1.11639 25.845 1.11137 25.2291 1.10579C25.0694 1.10431 24.8355 1.10338 24.5276 1.103C24.2196 1.10263 23.9972 1.10338 23.8603 1.10524C23.7463 1.10784 23.6835 1.10998 23.6721 1.11165C23.6607 1.11332 23.7178 1.11481 23.8432 1.11611C23.9687 1.11742 24.0885 1.11844 24.2025 1.11918C24.3166 1.11993 24.4477 1.12067 24.596 1.12141C24.7443 1.12216 24.8413 1.12272 24.8869 1.12309C25.2062 1.12681 25.2975 1.12941 25.1606 1.1309C25.115 1.13127 25.018 1.13192 24.8698 1.13285C24.7215 1.13378 24.5903 1.13462 24.4763 1.13536C24.3622 1.13611 24.2938 1.13685 24.271 1.13759C24.2025 1.13908 24.2025 1.14168 24.271 1.1454C24.3394 1.14912 24.3166 1.15173 24.2025 1.15321C24.0885 1.15135 23.9858 1.1481 23.8946 1.14345C23.8033 1.1388 23.7235 1.13573 23.655 1.13425C23.8147 1.13759 23.5296 1.13871 22.7996 1.13759L22.4574 1.13704C22.3661 1.13704 22.1836 1.13741 21.9099 1.13815C21.6362 1.1389 21.4023 1.13908 21.2084 1.13871C21.0145 1.13834 20.8605 1.13685 20.7465 1.13425C20.6552 1.13127 20.6552 1.12755 20.7465 1.12309C20.7693 1.1216 20.8149 1.12123 20.8834 1.12197C20.7921 1.12086 20.6666 1.11909 20.507 1.11667C20.3473 1.11425 20.2332 1.11267 20.1648 1.11193C19.1154 1.11751 18.0433 1.12513 16.9483 1.1348C17.0852 1.13518 17.222 1.13499 17.3589 1.13425C17.473 1.1335 17.6212 1.13229 17.8037 1.13062C17.9862 1.12895 18.1003 1.12792 18.1459 1.12755C18.9215 1.12234 19.4006 1.12104 19.5831 1.12365L19.7542 1.12086C20.0735 1.12681 20.3017 1.13146 20.4385 1.1348C20.2788 1.13332 19.9367 1.13313 19.412 1.13425C18.9557 1.13648 18.7048 1.13871 18.6592 1.14094C18.8189 1.1454 18.8759 1.14875 18.8303 1.15098C18.739 1.14987 18.6079 1.14801 18.4368 1.1454C18.2657 1.1428 18.1003 1.14075 17.9406 1.13927C17.7809 1.13778 17.6098 1.13685 17.4273 1.13648C17.0623 1.13648 16.8114 1.13666 16.6745 1.13704C13.344 1.16679 10.6636 1.20807 8.63328 1.26089C8.79297 1.26349 8.92984 1.26498 9.0439 1.26535C9.13515 1.26572 9.19218 1.2674 9.21499 1.27037C9.2378 1.27335 9.26632 1.27539 9.30054 1.27651C9.33475 1.27763 9.46592 1.27707 9.69404 1.27484C9.89935 1.27781 9.93357 1.28134 9.7967 1.28544C9.81951 1.28506 10.3214 1.29008 11.3023 1.3005C11.7357 1.30682 11.9752 1.31073 12.0209 1.31221C12.0893 1.31631 11.9752 1.31965 11.6787 1.32226C11.6559 1.32151 11.5532 1.31984 11.3707 1.31724C11.1882 1.31463 11.0856 1.31389 11.0628 1.315C10.9943 1.31686 11 1.3203 11.0799 1.32533C11.1597 1.33035 11.2795 1.33267 11.4392 1.3323C11.2795 1.3323 11.1711 1.33527 11.1141 1.34123C11.0571 1.34718 11.0285 1.35378 11.0285 1.36103C11.0285 1.36828 11.0171 1.37265 10.9943 1.37414L11.0628 1.3747C10.9943 1.37916 11.0571 1.38558 11.251 1.39395C11.4449 1.40231 11.6901 1.40594 11.9867 1.40483C11.6901 1.40594 11.9182 1.41394 12.671 1.42881C12.8079 1.43179 12.8991 1.43346 12.9448 1.43384C13.0132 1.43458 13.1501 1.43597 13.3554 1.43802C13.5607 1.44007 13.7318 1.44193 13.8687 1.4436C14.0055 1.44527 14.1196 1.44723 14.2108 1.44946C14.3021 1.45132 14.4161 1.4555 14.553 1.46201C14.6899 1.46852 14.8496 1.47289 15.0321 1.47512C14.9864 1.47735 15.0948 1.48107 15.3571 1.48628C15.6195 1.49149 15.7392 1.49576 15.7164 1.49911C15.6936 1.49911 15.6651 1.4993 15.6309 1.49967C15.5967 1.50004 15.5681 1.50023 15.5453 1.50023C15.6138 1.50283 15.7906 1.50543 16.0757 1.50804C16.3609 1.51064 16.5377 1.51306 16.6061 1.51529C16.6289 1.5164 16.6517 1.51826 16.6745 1.52087C16.6973 1.52347 16.7316 1.52552 16.7772 1.527C16.8228 1.52849 16.9141 1.52886 17.0509 1.52812C17.0966 1.52068 16.8228 1.50915 16.2297 1.49353C15.8875 1.48423 15.6936 1.47884 15.648 1.47735C15.5796 1.47549 15.5168 1.47261 15.4598 1.4687C15.4028 1.4648 15.3514 1.4621 15.3058 1.46062C15.3514 1.46062 15.4199 1.46089 15.5111 1.46145C15.6024 1.46201 15.6993 1.46266 15.802 1.4634C15.9046 1.46415 15.9902 1.46489 16.0586 1.46564C16.127 1.46638 16.1499 1.46694 16.127 1.46731C16.0586 1.46991 16.0814 1.47317 16.1955 1.47707C16.3095 1.48098 16.4464 1.48442 16.6061 1.48739C16.7658 1.49037 16.9597 1.4939 17.1878 1.49799C17.4159 1.50209 17.5528 1.5045 17.5984 1.50525C17.7353 1.50748 17.895 1.5111 18.0775 1.51613C18.26 1.52115 18.26 1.52366 18.0775 1.52366C18.2828 1.52366 18.5109 1.52561 18.7618 1.52952C19.0128 1.53342 19.2067 1.53705 19.3435 1.54039C19.4576 1.54337 19.5489 1.5482 19.6173 1.5549C19.6857 1.56159 19.7428 1.56606 19.7884 1.56829C19.834 1.57089 19.931 1.5734 20.0792 1.57582C20.2275 1.57824 20.3701 1.58 20.507 1.58112C20.6438 1.58224 20.8263 1.58372 21.0544 1.58558C21.2826 1.58744 21.4308 1.58875 21.4993 1.58949C21.6133 1.59023 21.8244 1.59219 22.1323 1.59535C22.4403 1.59851 22.6855 1.60065 22.868 1.60176C23.0961 1.60325 23.2786 1.60399 23.4155 1.60399C23.5524 1.60399 23.7178 1.60353 23.9117 1.6026C24.1056 1.60167 24.2595 1.60102 24.3736 1.60065C24.7158 1.5999 25.0466 1.60269 25.3659 1.60902C25.6853 1.61534 25.9248 1.61924 26.0845 1.62073C26.9057 1.6278 27.5331 1.62984 27.9665 1.62687C27.9209 1.62724 27.9266 1.62863 27.9836 1.63105C28.0406 1.63347 28.1319 1.63635 28.2574 1.6397C28.3828 1.64305 28.4855 1.64574 28.5653 1.64779C28.6452 1.64983 28.7079 1.65142 28.7535 1.65253C28.8676 1.65476 29.0729 1.65755 29.3694 1.6609C29.666 1.66425 29.8713 1.66704 29.9854 1.66927C30.1222 1.66778 30.2021 1.66611 30.2249 1.66425C30.1565 1.66722 30.2363 1.67094 30.4644 1.6754C30.6925 1.67987 30.8979 1.68173 31.0804 1.68098C31.3997 1.67987 31.5594 1.67392 31.5594 1.66313C30.8522 1.66871 30.2933 1.66536 29.8827 1.65309C29.8827 1.65272 29.8542 1.65169 29.7972 1.65002C29.7401 1.64835 29.6945 1.64677 29.6603 1.64528C29.6261 1.64379 29.5976 1.64221 29.5748 1.64054C29.5519 1.63886 29.5519 1.63747 29.5748 1.63635C29.5976 1.63524 29.6546 1.63468 29.7458 1.63468C29.9512 1.63468 30.0652 1.63403 30.088 1.63273C30.1108 1.63142 30.088 1.6291 30.0196 1.62575C29.9512 1.6224 29.9055 1.61999 29.8827 1.6185C29.8599 1.61552 29.7344 1.6118 29.5063 1.60734C29.2782 1.60288 29.1413 1.60009 29.0957 1.59897C28.9816 1.60232 28.7991 1.60381 28.5482 1.60344C28.2973 1.60306 28.1148 1.60139 28.0007 1.59842C28.0007 1.59879 27.9836 1.59981 27.9494 1.60148C27.9152 1.60316 27.8981 1.60437 27.8981 1.60511C27.6015 1.60511 27.4304 1.60492 27.3848 1.60455C27.4076 1.60344 27.4361 1.60018 27.4703 1.59479C27.5046 1.5894 27.5445 1.58521 27.5901 1.58224C27.6129 1.58075 27.6757 1.57852 27.7783 1.57554C27.881 1.57257 27.9665 1.56987 28.0349 1.56745C28.1034 1.56503 28.149 1.56271 28.1718 1.56048C28.1946 1.55825 28.1433 1.55648 28.0178 1.55518C27.8924 1.55388 27.6928 1.55341 27.419 1.55378C26.9856 1.55416 26.689 1.55787 26.5293 1.56494C26.5065 1.56606 26.4723 1.56801 26.4267 1.5708C26.3811 1.57359 26.324 1.57573 26.2556 1.57722C26.1872 1.5787 26.0845 1.58 25.9476 1.58112C25.788 1.58224 25.5142 1.58261 25.1264 1.58224C24.7386 1.58186 24.4649 1.58093 24.3052 1.57945C24.0086 1.57647 23.752 1.57108 23.5353 1.56327C23.3185 1.55546 23.2102 1.54858 23.2102 1.54263C23.2102 1.53891 23.2387 1.53398 23.2957 1.52784C23.3528 1.5217 23.387 1.51706 23.3984 1.51389C23.4098 1.51073 23.3471 1.50618 23.2102 1.50023C23.2786 1.49948 23.3813 1.49772 23.5182 1.49493C23.655 1.49214 23.7691 1.49018 23.8603 1.48907C23.906 1.4887 23.9573 1.48842 24.0143 1.48823C24.0713 1.48804 24.1227 1.48804 24.1683 1.48823C24.2139 1.48842 24.2595 1.48814 24.3052 1.48739C24.3508 1.48665 24.385 1.48553 24.4078 1.48405C24.385 1.48367 24.3394 1.48312 24.271 1.48237C24.2025 1.48126 24.1569 1.4807 24.1341 1.4807C24.2938 1.48182 24.6188 1.48154 25.1093 1.47986C25.5998 1.47819 25.9134 1.47847 26.0503 1.4807C26.3925 1.48479 26.6434 1.48442 26.8031 1.47958C26.8031 1.47921 26.7746 1.47744 26.7175 1.47428C26.6605 1.47112 26.6548 1.46861 26.7004 1.46675C26.8145 1.47679 27.1453 1.47847 27.6928 1.47177C27.7612 1.47289 27.938 1.47382 28.2231 1.47456C28.5083 1.47531 28.7079 1.47624 28.822 1.47735C28.8904 1.4781 28.9702 1.47912 29.0615 1.48042C29.1527 1.48172 29.2155 1.48256 29.2497 1.48293C29.2839 1.4833 29.3409 1.48321 29.4208 1.48265C29.5006 1.48209 29.5976 1.48089 29.7116 1.47903C29.9397 1.48423 30.0766 1.4887 30.1222 1.49242C30.3732 1.50729 30.5899 1.51547 30.7724 1.51696C30.9321 1.51808 31.0575 1.51845 31.1488 1.51808C31.24 1.51771 31.2914 1.51594 31.3028 1.51278C31.3142 1.50962 31.3142 1.50701 31.3028 1.50497C31.2914 1.50292 31.2743 1.5006 31.2514 1.49799L31.2172 1.49353C31.2172 1.49018 31.2172 1.48684 31.2172 1.48349L31.183 1.47903C30.8408 1.47791 30.6298 1.47568 30.55 1.47233C30.4701 1.46898 30.4872 1.46554 30.6013 1.46201C30.7154 1.45848 30.8864 1.45504 31.1146 1.45169C31.1374 1.45132 31.2286 1.45067 31.3883 1.44974C31.548 1.44881 31.7248 1.4476 31.9187 1.44611C32.1126 1.44462 32.2552 1.44313 32.3464 1.44165C32.8255 1.43458 32.9966 1.42807 32.8597 1.42212C33.0194 1.42212 33.1448 1.42045 33.2361 1.4171C33.2133 1.4171 33.1562 1.41654 33.065 1.41543C32.9738 1.41431 32.8882 1.41338 32.8084 1.41264C32.7285 1.41189 32.6772 1.41152 32.6544 1.41152C32.8597 1.40966 32.8825 1.40669 32.7228 1.40259C32.8369 1.40148 32.9224 1.39943 32.9795 1.39646C33.0365 1.39348 33.122 1.39162 33.2361 1.39088C33.4414 1.39534 33.6809 1.39571 33.9547 1.39199C34.1372 1.38902 34.1486 1.38604 33.9889 1.38307C34.1029 1.38046 34.3368 1.37851 34.6904 1.37721C35.0439 1.37591 35.255 1.37414 35.3234 1.37191C35.4831 1.37265 35.5743 1.37228 35.5971 1.37079C35.62 1.36931 35.6314 1.36707 35.6314 1.3641C35.6314 1.36112 35.6656 1.35889 35.734 1.3574C35.8253 1.35554 35.9963 1.35387 36.2473 1.35238C36.4982 1.3509 36.6465 1.34997 36.6921 1.34959L37.2738 1.34346C37.3423 1.34197 37.3423 1.34123 37.2738 1.34123C37.6844 1.34197 38.038 1.33992 38.3346 1.33509C38.5627 1.331 38.4943 1.32728 38.1293 1.32393C38.1977 1.3217 38.1635 1.31993 38.0266 1.31863C37.8898 1.31733 37.7187 1.31631 37.5134 1.31556C37.5818 1.31519 37.713 1.3151 37.9069 1.31528C38.1008 1.31547 38.2205 1.31519 38.2661 1.31445C38.6083 1.31073 38.5285 1.30775 38.0266 1.30552C37.6388 1.30366 37.1484 1.30589 36.5552 1.31221ZM30.9777 1.80149C35.677 1.7881 39.6805 1.75295 42.9882 1.69605C42.9198 1.69493 42.7772 1.69409 42.5605 1.69354C42.3438 1.69298 42.2012 1.69233 42.1328 1.69158C41.7222 1.68898 41.4484 1.68749 41.3116 1.68712C41.3344 1.68452 41.3059 1.6821 41.226 1.67987C41.1462 1.67764 41.0549 1.67596 40.9523 1.67485C40.8496 1.67373 40.707 1.67224 40.5245 1.67038C40.342 1.66852 40.2166 1.66722 40.1481 1.66648C40.1025 1.66573 40.0227 1.66462 39.9086 1.66313C39.7946 1.66164 39.7147 1.66062 39.6691 1.66006C39.6235 1.6595 39.5379 1.65867 39.4125 1.65755C39.287 1.65644 39.19 1.65606 39.1216 1.65644C39.0532 1.65681 38.9391 1.65699 38.7794 1.65699L38.6768 1.65755C38.6083 1.65792 38.5456 1.65839 38.4886 1.65895C38.4315 1.6595 38.3688 1.66006 38.3004 1.66062C38.2319 1.66118 38.1863 1.66174 38.1635 1.66229C38.1407 1.66285 38.1407 1.66332 38.1635 1.66369C37.6844 1.65737 37.2738 1.65328 36.9316 1.65142C36.8176 1.65104 36.6921 1.65002 36.5552 1.64835C36.4184 1.64667 36.2986 1.64537 36.196 1.64444C36.0933 1.64351 35.9792 1.64323 35.8538 1.6436C35.7283 1.64398 35.5971 1.64528 35.4603 1.64751C35.3462 1.64937 35.2778 1.65216 35.255 1.65588C35.2321 1.6596 35.2093 1.66202 35.1865 1.66313C35.0268 1.66127 35.0268 1.65802 35.1865 1.65337C35.3462 1.64872 35.369 1.64528 35.255 1.64305C35.1865 1.64082 35.0668 1.63998 34.8957 1.64054C34.7246 1.64109 34.5877 1.64193 34.4851 1.64305C34.3824 1.64416 34.2512 1.64574 34.0915 1.64779C33.9319 1.64983 33.8292 1.65104 33.7836 1.65142C33.738 1.65179 33.641 1.65281 33.4927 1.65448C33.3444 1.65616 33.2475 1.65755 33.2019 1.65867C33.1334 1.66016 33.065 1.66239 32.9966 1.66536C32.9281 1.66834 32.8711 1.67038 32.8255 1.6715C32.7798 1.67001 32.6487 1.6688 32.432 1.66787C32.2153 1.66694 32.1069 1.66592 32.1069 1.6648C32.1525 1.66852 32.1981 1.67503 32.2438 1.68433C32.2894 1.69363 32.3464 1.7007 32.4149 1.70553C32.5745 1.71706 32.4377 1.72599 32.0042 1.73231C31.3883 1.74161 31.0575 1.74905 31.0119 1.75463C30.9207 1.76281 31.0575 1.76764 31.4225 1.76913C31.4225 1.77173 31.3313 1.77555 31.1488 1.78057C30.9663 1.78559 30.8864 1.78959 30.9093 1.79256C30.9093 1.79479 30.9321 1.79777 30.9777 1.80149Z" fill="#4CADC9"/>
</g>
<defs>
<clipPath id="clip0_1_182">
<rect width="52.559" height="1" fill="white" transform="matrix(1 0 0 -1 0.899994 1.95001)"/>
</clipPath>
</defs>
</svg>
