<svg width="53" height="2" viewBox="0 0 53 2" fill="none" xmlns="http://www.w3.org/2000/svg">
<g clip-path="url(#clip0_1_476)">
<path d="M32.873 1.121C32.873 1.121 33.3007 1.11403 34.1561 1.10008C35.0116 1.08613 35.4393 1.05945 35.4393 1.02002C35.4393 0.980598 34.5839 0.946938 32.873 0.919043C31.1621 0.891148 29.0976 0.877201 26.6795 0.877201C24.2614 0.877201 22.1969 0.891148 20.486 0.919043C18.7751 0.946938 17.9197 0.980598 17.9197 1.02002C17.9197 1.05945 18.7751 1.09311 20.486 1.121C22.1969 1.1489 24.2614 1.16284 26.6795 1.16284C29.0976 1.16284 31.1621 1.1489 32.873 1.121ZM36.2263 0.864369C36.2263 0.864369 36.8822 0.875062 38.1939 0.896448C39.5056 0.917834 40.1614 0.959026 40.1614 1.02002C40.1614 1.08102 38.8497 1.1329 36.2263 1.17568C33.6029 1.21845 30.4207 1.23983 26.6795 1.23983C22.9383 1.23983 19.756 1.21845 17.1326 1.17568C14.5093 1.1329 13.1976 1.08102 13.1976 1.02002C13.1976 0.959026 14.5093 0.907141 17.1326 0.864369C19.756 0.821597 22.9383 0.800211 26.6795 0.800211C30.4207 0.800211 33.6029 0.821597 36.2263 0.864369ZM42.9331 0.755022C42.9331 0.755022 43.0871 0.757532 43.395 0.762553C43.703 0.767574 43.857 0.777152 43.857 0.791285C43.857 0.805418 43.549 0.817506 42.9331 0.827548C42.3172 0.83759 41.5758 0.842611 40.7089 0.842611C39.842 0.842611 39.1007 0.83759 38.4847 0.827548C37.8688 0.817506 37.5608 0.805418 37.5608 0.791285C37.5608 0.777152 37.8688 0.765064 38.4847 0.755022C39.1007 0.74498 39.842 0.739959 40.7089 0.739959C41.5758 0.739959 42.3172 0.74498 42.9331 0.755022ZM29.2972 0.668269C29.2972 0.668269 28.9008 0.668316 28.1081 0.668409C27.3154 0.668501 26.8392 0.668548 26.6795 0.668548C26.5198 0.668548 25.6472 0.668455 24.0618 0.668269C22.4764 0.668083 21.273 0.668083 20.4518 0.668269C19.6306 0.668455 18.5299 0.669013 17.1497 0.669943C15.7696 0.670873 14.5948 0.672732 13.6253 0.675522C12.6558 0.678311 11.8402 0.681752 11.1787 0.685843C10.0381 0.693281 9.03436 0.704067 8.1675 0.718201C7.30064 0.732334 6.63909 0.748699 6.18285 0.767296C5.93192 0.778082 5.72091 0.791378 5.54982 0.807185C5.37873 0.822992 5.26467 0.842147 5.20764 0.864648C5.15061 0.88715 5.11639 0.905096 5.10498 0.918485C5.09358 0.931875 5.09358 0.951494 5.10498 0.977343C5.11639 1.00319 5.12209 1.01742 5.12209 1.02002C5.12209 1.02263 5.11639 1.03685 5.10498 1.0627C5.09358 1.08855 5.09358 1.10817 5.10498 1.12156C5.11639 1.13495 5.15061 1.15289 5.20764 1.1754C5.26467 1.1979 5.37873 1.21705 5.54982 1.23286C5.72091 1.24867 5.93192 1.26196 6.18285 1.27275C6.63909 1.29135 7.30064 1.30771 8.1675 1.32184C9.03436 1.33598 10.0381 1.34676 11.1787 1.3542C11.8402 1.35829 12.6558 1.36173 13.6253 1.36452C14.5948 1.36731 15.7696 1.36917 17.1497 1.3701C18.5299 1.37103 19.6306 1.37159 20.4518 1.37178C21.273 1.37196 22.4764 1.37196 24.0618 1.37178C25.6472 1.37159 26.5198 1.3715 26.6795 1.3715C26.8392 1.3715 27.7117 1.37159 29.2972 1.37178C30.8826 1.37196 32.0859 1.37196 32.9072 1.37178C33.7284 1.37159 34.8291 1.37103 36.2092 1.3701C37.5894 1.36917 38.7642 1.36731 39.7337 1.36452C40.7032 1.36173 41.5187 1.35829 42.1803 1.3542C43.3209 1.34676 44.3246 1.33598 45.1915 1.32184C46.0583 1.30771 46.7199 1.29135 47.1761 1.27275C47.4271 1.26196 47.6381 1.24867 47.8092 1.23286C47.9803 1.21705 48.0943 1.1979 48.1513 1.1754C48.2084 1.15289 48.2426 1.13495 48.254 1.12156C48.2654 1.10817 48.2654 1.08855 48.254 1.0627C48.2426 1.03685 48.2369 1.02263 48.2369 1.02002C48.2369 1.01742 48.2426 1.00319 48.254 0.977343C48.2654 0.951494 48.2654 0.931875 48.254 0.918485C48.2426 0.905096 48.2084 0.88715 48.1513 0.864648C48.0943 0.842147 47.9803 0.822992 47.8092 0.807185C47.6381 0.791378 47.4271 0.778082 47.1761 0.767296C46.7199 0.748699 46.0583 0.732334 45.1915 0.718201C44.3246 0.704067 43.3209 0.693281 42.1803 0.685843C41.5187 0.681752 40.7032 0.678311 39.7337 0.675522C38.7642 0.672732 37.5894 0.670873 36.2092 0.669943C34.8291 0.669013 33.7284 0.668455 32.9072 0.668269C32.0859 0.668083 30.8826 0.668083 29.2972 0.668269ZM52.7879 0.843169C52.902 0.875899 52.959 0.93485 52.959 1.02002C52.959 1.10519 52.902 1.16415 52.7879 1.19688C52.5598 1.27424 51.1454 1.33412 48.5448 1.37652C45.9443 1.41892 42.2715 1.44198 37.5266 1.4457C35.5192 1.44756 31.9035 1.44849 26.6795 1.44849C21.4555 1.44849 17.8398 1.44756 15.8324 1.4457C11.0874 1.44198 7.4147 1.41892 4.81413 1.37652C2.21355 1.33412 0.799205 1.27424 0.571084 1.19688C0.457024 1.16415 0.399994 1.10519 0.399994 1.02002C0.399994 0.93485 0.457024 0.875899 0.571084 0.843169C0.799205 0.765808 2.21355 0.705927 4.81413 0.663527C7.4147 0.621127 11.0874 0.598067 15.8324 0.594348C17.8398 0.592488 21.4555 0.591558 26.6795 0.591558C31.9035 0.591558 35.5192 0.592488 37.5266 0.594348C42.2715 0.598067 45.9443 0.621127 48.5448 0.663527C51.1454 0.705927 52.5598 0.765808 52.7879 0.843169Z" fill="#FE6C61"/>
</g>
<defs>
<clipPath id="clip0_1_476">
<rect width="52.559" height="1" fill="white" transform="matrix(1 0 0 -1 0.399994 1.52002)"/>
</clipPath>
</defs>
</svg>
