<svg width="11" height="14" viewBox="0 0 11 14" fill="none" xmlns="http://www.w3.org/2000/svg">
<g clip-path="url(#clip0_1_53)">
<path d="M9.07642 8.06641C9.22635 8.2115 9.2602 8.37835 9.17799 8.56696C9.09577 8.76042 8.9531 8.85714 8.74997 8.85714H5.97877L7.43692 12.3103C7.48528 12.4312 7.48528 12.5497 7.43692 12.6657C7.38855 12.7818 7.30634 12.8664 7.19026 12.9196L5.90622 13.4637C5.78532 13.5121 5.66683 13.5121 5.55075 13.4637C5.43468 13.4154 5.35005 13.3331 5.29685 13.2171L3.91125 9.93806L1.64785 12.2015C1.55596 12.2933 1.44715 12.3393 1.3214 12.3393C1.26337 12.3393 1.20533 12.3272 1.1473 12.303C0.953843 12.2208 0.857117 12.0781 0.857117 11.875V0.964286C0.857117 0.761161 0.953843 0.61849 1.1473 0.536273C1.20533 0.512091 1.26337 0.5 1.3214 0.5C1.45198 0.5 1.5608 0.545945 1.64785 0.637835L9.07642 8.06641Z" fill="#848484"/>
</g>
<defs>
<clipPath id="clip0_1_53">
<rect width="9.38" height="13" fill="white" transform="matrix(1 0 0 -1 0.809998 13.5)"/>
</clipPath>
</defs>
</svg>
