<svg width="12" height="14" viewBox="0 0 12 14" fill="none" xmlns="http://www.w3.org/2000/svg">
<g clip-path="url(#clip0_1_38)">
<path d="M11.0831 3.2567C11.2186 3.39211 11.3346 3.57589 11.4314 3.80804C11.5281 4.04018 11.5765 4.25298 11.5765 4.44643V12.8036C11.5765 12.997 11.5087 13.1615 11.3733 13.2969C11.2379 13.4323 11.0735 13.5 10.88 13.5H1.13002C0.93657 13.5 0.772135 13.4323 0.636719 13.2969C0.501302 13.1615 0.433594 12.997 0.433594 12.8036V1.19643C0.433594 1.00298 0.501302 0.838542 0.636719 0.703125C0.772135 0.567709 0.93657 0.5 1.13002 0.5H7.63002C7.82347 0.5 8.03627 0.548363 8.26841 0.64509C8.50056 0.741816 8.68434 0.857887 8.81975 0.993304L11.0831 3.2567ZM7.86216 1.48661V4.21429H10.5898C10.5415 4.07403 10.4883 3.97489 10.4302 3.91685L8.1596 1.64621C8.10156 1.58817 8.00242 1.53497 7.86216 1.48661ZM10.6479 12.5714V5.14286H7.63002C7.43657 5.14286 7.27214 5.07515 7.13672 4.93973C7.0013 4.80432 6.93359 4.63988 6.93359 4.44643V1.42857H1.36217V12.5714H10.6479ZM9.71931 9.32143V11.6429H2.29074V10.25L3.68359 8.85714L4.61217 9.78571L7.39788 7L9.71931 9.32143ZM4.6702 7.52232C4.6702 7.52232 4.60249 7.59003 4.46708 7.72545C4.33166 7.86086 4.0705 7.92857 3.68359 7.92857C3.29669 7.92857 2.96782 7.79315 2.69699 7.52232C2.42615 7.25149 2.29074 6.92262 2.29074 6.53571C2.29074 6.14881 2.42615 5.81994 2.69699 5.54911C2.96782 5.27827 3.29669 5.14286 3.68359 5.14286C4.0705 5.14286 4.39937 5.27827 4.6702 5.54911C4.94103 5.81994 5.07645 6.14881 5.07645 6.53571C5.07645 6.92262 4.94103 7.25149 4.6702 7.52232Z" fill="#848484"/>
</g>
<defs>
<clipPath id="clip0_1_38">
<rect width="11.25" height="13" fill="white" transform="matrix(1 0 0 -1 0.380005 13.5)"/>
</clipPath>
</defs>
</svg>
