<svg width="53" height="2" viewBox="0 0 53 2" fill="none" xmlns="http://www.w3.org/2000/svg">
<g clip-path="url(#clip0_1_462)">
<path d="M43.1042 0.591558C45.8188 0.591558 48.1399 0.607272 50.0676 0.638701C51.9952 0.670129 52.959 0.707973 52.959 0.752232V1.28781C52.959 1.33207 51.9952 1.36992 50.0676 1.40134C48.1399 1.43277 45.8188 1.44849 43.1042 1.44849H36.6712V1.11654H43.4806L44.5071 0.987106H36.6712V0.904538C36.6712 0.88371 36.9392 0.868089 37.4753 0.857675C38.0114 0.847261 39.055 0.842054 40.6063 0.842054L44.7809 0.841496V0.726011C43.3437 0.722664 41.3134 0.72099 38.69 0.72099C35.5876 0.72099 33.1068 0.735867 31.2476 0.765622C29.3884 0.795376 28.4588 0.837404 28.4588 0.891706V0.987106H21.6152V1.11654H28.4588V1.44849H10.2548C7.54018 1.44849 5.21905 1.43277 3.29143 1.40134C1.36381 1.36992 0.400002 1.33207 0.400002 1.28781V0.752232C0.400002 0.707973 1.36381 0.670129 3.29143 0.638701C5.21905 0.607272 7.54018 0.591558 10.2548 0.591558H43.1042Z" fill="#5472D2"/>
</g>
<defs>
<clipPath id="clip0_1_462">
<rect width="52.559" height="1" fill="white" transform="matrix(1 0 0 -1 0.400002 1.52002)"/>
</clipPath>
</defs>
</svg>
