<svg width="13" height="14" viewBox="0 0 13 14" fill="none" xmlns="http://www.w3.org/2000/svg">
<g clip-path="url(#clip0_1_669)">
<path d="M7.81306 7.83294C7.81306 7.83294 7.90374 7.74226 8.0851 7.5609C8.26646 7.37953 8.35714 7.03253 8.35714 6.51988C8.35714 6.00723 8.17578 5.56955 7.81306 5.20682C7.45034 4.8441 7.01265 4.66274 6.5 4.66274C5.98735 4.66274 5.54967 4.8441 5.18694 5.20682C4.82422 5.56955 4.64286 6.00723 4.64286 6.51988C4.64286 7.03253 4.82422 7.47021 5.18694 7.83294C5.54967 8.19566 5.98735 8.37702 6.5 8.37702C7.01265 8.37702 7.45034 8.19566 7.81306 7.83294ZM8.524 4.49588C8.524 4.49588 8.66304 4.63493 8.94113 4.91302C9.21922 5.1911 9.35826 5.72673 9.35826 6.51988C9.35826 7.31303 9.08017 7.9877 8.524 8.54388C7.96782 9.10005 7.29316 9.37814 6.5 9.37814C5.70685 9.37814 5.03218 9.10005 4.47601 8.54388C3.91983 7.9877 3.64174 7.31303 3.64174 6.51988C3.64174 5.72673 3.91983 5.05206 4.47601 4.49588C5.03218 3.93971 5.70685 3.66162 6.5 3.66162C7.29316 3.66162 7.96782 3.93971 8.524 4.49588ZM9.94587 3.07401C9.94587 3.07401 9.97852 3.10665 10.0438 3.17194C10.1091 3.23724 10.1417 3.36177 10.1417 3.54555C10.1417 3.72933 10.0765 3.88651 9.94587 4.01709C9.81529 4.14767 9.65811 4.21296 9.47433 4.21296C9.29055 4.21296 9.13337 4.14767 9.00279 4.01709C8.87221 3.88651 8.80692 3.72933 8.80692 3.54555C8.80692 3.36177 8.87221 3.20459 9.00279 3.07401C9.13337 2.94343 9.29055 2.87814 9.47433 2.87814C9.65811 2.87814 9.81529 2.94343 9.94587 3.07401ZM7.05497 1.94594C7.05497 1.94594 6.97094 1.94655 6.80288 1.94775C6.63481 1.94896 6.53386 1.94957 6.5 1.94957C6.46615 1.94957 6.28116 1.94836 5.94504 1.94594C5.60891 1.94352 5.3538 1.94352 5.17969 1.94594C5.00558 1.94836 4.77223 1.95561 4.47963 1.9677C4.18704 1.97979 3.93797 2.00398 3.73242 2.04025C3.52688 2.07652 3.35398 2.12126 3.21373 2.17446C2.97191 2.27118 2.75912 2.41144 2.57534 2.59522C2.39156 2.77899 2.2513 2.99179 2.15458 3.23361C2.10138 3.37386 2.05664 3.54676 2.02037 3.7523C1.9841 3.95785 1.95992 4.20692 1.94783 4.49951C1.93574 4.79211 1.92848 5.02546 1.92606 5.19957C1.92364 5.37367 1.92364 5.62879 1.92606 5.96491C1.92848 6.30104 1.92969 6.48603 1.92969 6.51988C1.92969 6.55373 1.92848 6.73872 1.92606 7.07485C1.92364 7.41097 1.92364 7.66609 1.92606 7.84019C1.92848 8.0143 1.93574 8.24765 1.94783 8.54025C1.95992 8.83285 1.9841 9.08192 2.02037 9.28746C2.05664 9.493 2.10138 9.6659 2.15458 9.80615C2.2513 10.048 2.39156 10.2608 2.57534 10.4445C2.75912 10.6283 2.97191 10.7686 3.21373 10.8653C3.35398 10.9185 3.52688 10.9632 3.73242 10.9995C3.93797 11.0358 4.18704 11.06 4.47963 11.0721C4.77223 11.0841 5.00558 11.0914 5.17969 11.0938C5.3538 11.0962 5.60891 11.0962 5.94504 11.0938C6.28116 11.0914 6.46615 11.0902 6.5 11.0902C6.53386 11.0902 6.71885 11.0914 7.05497 11.0938C7.39109 11.0962 7.64621 11.0962 7.82031 11.0938C7.99442 11.0914 8.22777 11.0841 8.52037 11.0721C8.81297 11.06 9.06204 11.0358 9.26758 10.9995C9.47312 10.9632 9.64602 10.9185 9.78627 10.8653C10.0281 10.7686 10.2409 10.6283 10.4247 10.4445C10.6084 10.2608 10.7487 10.048 10.8454 9.80615C10.8986 9.6659 10.9434 9.493 10.9796 9.28746C11.0159 9.08192 11.0401 8.83285 11.0522 8.54025C11.0643 8.24765 11.0715 8.0143 11.0739 7.84019C11.0764 7.66609 11.0764 7.41097 11.0739 7.07485C11.0715 6.73872 11.0703 6.55373 11.0703 6.51988C11.0703 6.48603 11.0715 6.30104 11.0739 5.96491C11.0764 5.62879 11.0764 5.37367 11.0739 5.19957C11.0715 5.02546 11.0643 4.79211 11.0522 4.49951C11.0401 4.20692 11.0159 3.95785 10.9796 3.7523C10.9434 3.54676 10.8986 3.37386 10.8454 3.23361C10.7487 2.99179 10.6084 2.77899 10.4247 2.59522C10.2409 2.41144 10.0281 2.27118 9.78627 2.17446C9.64602 2.12126 9.47312 2.07652 9.26758 2.04025C9.06204 2.00398 8.81297 1.97979 8.52037 1.9677C8.22777 1.95561 7.99442 1.94836 7.82031 1.94594C7.64621 1.94352 7.39109 1.94352 7.05497 1.94594ZM12.0352 4.22022C12.0593 4.64581 12.0714 5.41237 12.0714 6.51988C12.0714 7.6274 12.0593 8.39395 12.0352 8.81955C11.9868 9.8255 11.6869 10.6041 11.1356 11.1555C10.5843 11.7068 9.80562 12.0067 8.79967 12.055C8.37407 12.0792 7.60752 12.0913 6.5 12.0913C5.39249 12.0913 4.62593 12.0792 4.20034 12.055C3.19438 12.0067 2.41574 11.7068 1.8644 11.1555C1.31306 10.6041 1.01321 9.8255 0.964846 8.81955C0.940664 8.39395 0.928574 7.6274 0.928574 6.51988C0.928574 5.41237 0.940664 4.64581 0.964846 4.22022C1.01321 3.21426 1.31306 2.43562 1.8644 1.88428C2.41574 1.33294 3.19438 1.03309 4.20034 0.984724C4.62593 0.960543 5.39249 0.948452 6.5 0.948452C7.60752 0.948452 8.37407 0.960543 8.79967 0.984724C9.80562 1.03309 10.5843 1.33294 11.1356 1.88428C11.6869 2.43562 11.9868 3.21426 12.0352 4.22022Z" fill="black" fill-opacity="0.6"/>
</g>
<defs>
<clipPath id="clip0_1_669">
<rect width="11.16" height="13" fill="white" transform="matrix(1 0 0 -1 0.919998 13.02)"/>
</clipPath>
</defs>
</svg>
