<svg width="13" height="14" viewBox="0 0 13 14" fill="none" xmlns="http://www.w3.org/2000/svg">
<g clip-path="url(#clip0_1_48)">
<path d="M10.1077 7.31921C10.1948 7.23216 10.2383 7.12334 10.2383 6.99276C10.2383 6.86218 10.1948 6.75336 10.1077 6.66631L7.48162 4.04019L6.82146 3.38004C6.73441 3.29298 6.62559 3.24946 6.49501 3.24946C6.36443 3.24946 6.25562 3.29298 6.16856 3.38004L5.50841 4.04019L2.88229 6.66631C2.79524 6.75336 2.75171 6.86218 2.75171 6.99276C2.75171 7.12334 2.79524 7.23216 2.88229 7.31921L3.54245 7.97937C3.6295 8.06642 3.73832 8.10995 3.8689 8.10995C3.99948 8.10995 4.10829 8.06642 4.19535 7.97937L5.56644 6.60827V10.25C5.56644 10.3758 5.61239 10.4846 5.70428 10.5765C5.79617 10.6684 5.90498 10.7143 6.03073 10.7143H6.9593C7.08504 10.7143 7.19386 10.6684 7.28575 10.5765C7.37764 10.4846 7.42358 10.3758 7.42358 10.25V6.60827L8.79468 7.97937C8.88657 8.07126 8.99538 8.1172 9.12113 8.1172C9.24687 8.1172 9.35569 8.07126 9.44758 7.97937L10.1077 7.31921ZM11.3192 4.20342C11.3192 4.20342 11.4438 4.41682 11.6928 4.84362C11.9419 5.27043 12.0664 5.98922 12.0664 7.00001C12.0664 8.0108 11.8174 8.943 11.3192 9.79661C10.8211 10.6502 10.1452 11.3261 9.29161 11.8242C8.438 12.3224 7.5058 12.5714 6.49501 12.5714C5.48422 12.5714 4.55203 12.3224 3.69842 11.8242C2.84481 11.3261 2.16893 10.6502 1.67079 9.79661C1.17265 8.943 0.923584 8.0108 0.923584 7.00001C0.923584 5.98922 1.17265 5.05703 1.67079 4.20342C2.16893 3.34981 2.84481 2.67393 3.69842 2.17579C4.55203 1.67765 5.48422 1.42858 6.49501 1.42858C7.5058 1.42858 8.438 1.67765 9.29161 2.17579C10.1452 2.67393 10.8211 3.34981 11.3192 4.20342Z" fill="#848484"/>
</g>
<defs>
<clipPath id="clip0_1_48">
<rect width="11.25" height="13" fill="white" transform="matrix(1 0 0 -1 0.869995 13.5)"/>
</clipPath>
</defs>
</svg>
