<svg width="9" height="14" viewBox="0 0 9 14" fill="none" xmlns="http://www.w3.org/2000/svg">
<g clip-path="url(#clip0_1_85)">
<path d="M6.12499 4.67857C6.12499 4.74144 6.10202 4.79585 6.05607 4.84179C6.01013 4.88774 5.95572 4.91071 5.89285 4.91071C5.82998 4.91071 5.77557 4.88774 5.72962 4.84179C5.68368 4.79585 5.66071 4.74144 5.66071 4.67857C5.66071 4.4561 5.53013 4.28441 5.26896 4.1635C5.0078 4.04259 4.75148 3.98214 4.49999 3.98214C4.43712 3.98214 4.38271 3.95917 4.33677 3.91322C4.29082 3.86728 4.26785 3.81287 4.26785 3.75C4.26785 3.68713 4.29082 3.63272 4.33677 3.58677C4.38271 3.54083 4.43712 3.51786 4.49999 3.51786C4.74181 3.51786 4.98241 3.55655 5.22181 3.63393C5.46121 3.71131 5.67159 3.84189 5.85295 4.02567C6.03431 4.20945 6.12499 4.42708 6.12499 4.67857ZM7.28571 4.67857C7.28571 4.33036 7.20228 4.00632 7.03543 3.70647C6.86857 3.40662 6.65094 3.16118 6.38252 2.97014C6.11411 2.77911 5.81668 2.62918 5.49023 2.52037C5.16377 2.41155 4.8337 2.35714 4.49999 2.35714C4.16629 2.35714 3.83621 2.41155 3.50976 2.52037C3.18331 2.62918 2.88587 2.77911 2.61746 2.97014C2.34904 3.16118 2.13141 3.40662 1.96456 3.70647C1.7977 4.00632 1.71428 4.33036 1.71428 4.67857C1.71428 5.16704 1.87871 5.6023 2.20758 5.98437C2.25594 6.03757 2.3297 6.11737 2.42884 6.22377C2.52799 6.33017 2.60174 6.40997 2.6501 6.46317C3.26915 7.20312 3.61011 7.92373 3.67298 8.625H5.327C5.38987 7.92373 5.73083 7.20312 6.34988 6.46317C6.39824 6.40997 6.472 6.33017 6.57114 6.22377C6.67029 6.11737 6.74404 6.03757 6.7924 5.98437C7.12127 5.6023 7.28571 5.16704 7.28571 4.67857ZM8.21428 4.67857C8.21428 5.4282 7.96521 6.07626 7.46707 6.62277C7.24943 6.85975 7.06928 7.07012 6.92661 7.2539C6.78394 7.43768 6.64006 7.66862 6.49497 7.94671C6.34988 8.22479 6.26766 8.48474 6.24832 8.72656C6.47562 8.86198 6.58928 9.06027 6.58928 9.32143C6.58928 9.50037 6.52882 9.65513 6.40792 9.78571C6.52882 9.91629 6.58928 10.0711 6.58928 10.25C6.58928 10.5015 6.48046 10.6974 6.26283 10.8376C6.3257 10.9488 6.35713 11.0625 6.35713 11.1786C6.35713 11.401 6.28096 11.5727 6.12862 11.6936C5.97627 11.8145 5.78887 11.875 5.5664 11.875C5.46967 12.0878 5.32458 12.2571 5.13113 12.3828C4.93768 12.5086 4.7273 12.5714 4.49999 12.5714C4.27268 12.5714 4.06231 12.5086 3.86885 12.3828C3.6754 12.2571 3.53031 12.0878 3.43358 11.875C3.21111 11.875 3.02371 11.8145 2.87136 11.6936C2.71902 11.5727 2.64285 11.401 2.64285 11.1786C2.64285 11.0625 2.67428 10.9488 2.73716 10.8376C2.51952 10.6974 2.41071 10.5015 2.41071 10.25C2.41071 10.0711 2.47116 9.91629 2.59207 9.78571C2.47116 9.65513 2.41071 9.50037 2.41071 9.32143C2.41071 9.06027 2.52436 8.86198 2.75167 8.72656C2.73232 8.48474 2.6501 8.22479 2.50501 7.94671C2.35992 7.66862 2.21604 7.43768 2.07337 7.2539C1.9307 7.07012 1.75055 6.85975 1.53292 6.62277C1.03478 6.07626 0.785706 5.4282 0.785706 4.67857C0.785706 4.19977 0.893313 3.75363 1.10853 3.34012C1.32374 2.92662 1.60667 2.58324 1.9573 2.30999C2.30793 2.03674 2.70451 1.82152 3.14703 1.66434C3.58956 1.50716 4.04054 1.42857 4.49999 1.42857C4.95944 1.42857 5.41043 1.50716 5.85295 1.66434C6.29547 1.82152 6.69205 2.03674 7.04268 2.30999C7.39331 2.58324 7.67624 2.92662 7.89145 3.34012C8.10667 3.75363 8.21428 4.19977 8.21428 4.67857Z" fill="#848484"/>
</g>
<defs>
<clipPath id="clip0_1_85">
<rect width="7.5" height="13" fill="white" transform="matrix(1 0 0 -1 0.75 13.5)"/>
</clipPath>
</defs>
</svg>
