<svg width="12" height="14" viewBox="0 0 12 14" fill="none" xmlns="http://www.w3.org/2000/svg">
<g clip-path="url(#clip0_1_68)">
<path d="M5.99501 10.9464V3.05358C5.27924 3.05358 4.61908 3.23011 4.01454 3.58316C3.41001 3.93621 2.93121 4.41501 2.57816 5.01954C2.22511 5.62408 2.04858 6.28424 2.04858 7.00001C2.04858 7.71579 2.22511 8.37594 2.57816 8.98048C2.93121 9.58502 3.41001 10.0638 4.01454 10.4169C4.61908 10.7699 5.27924 10.9464 5.99501 10.9464ZM10.8192 4.20342C10.8192 4.20342 10.9438 4.41682 11.1928 4.84362C11.4419 5.27043 11.5664 5.98922 11.5664 7.00001C11.5664 8.0108 11.3174 8.943 10.8192 9.79661C10.3211 10.6502 9.64522 11.3261 8.79161 11.8242C7.938 12.3224 7.0058 12.5714 5.99501 12.5714C4.98422 12.5714 4.05203 12.3224 3.19842 11.8242C2.34481 11.3261 1.66893 10.6502 1.17079 9.79661C0.672654 8.943 0.423584 8.0108 0.423584 7.00001C0.423584 5.98922 0.672654 5.05703 1.17079 4.20342C1.66893 3.34981 2.34481 2.67393 3.19842 2.17579C4.05203 1.67765 4.98422 1.42858 5.99501 1.42858C7.0058 1.42858 7.938 1.67765 8.79161 2.17579C9.64522 2.67393 10.3211 3.34981 10.8192 4.20342Z" fill="#848484"/>
</g>
<defs>
<clipPath id="clip0_1_68">
<rect width="11.25" height="13" fill="white" transform="matrix(1 0 0 -1 0.369995 13.5)"/>
</clipPath>
</defs>
</svg>
