<svg width="15" height="14" viewBox="0 0 15 14" fill="none" xmlns="http://www.w3.org/2000/svg">
<g clip-path="url(#clip0_1_79)">
<path d="M3.31641 8.97321V9.66964C3.31641 9.74702 3.27772 9.78571 3.20034 9.78571H2.50391C2.42653 9.78571 2.38784 9.74702 2.38784 9.66964V8.97321C2.38784 8.89583 2.42653 8.85714 2.50391 8.85714H3.20034C3.27772 8.85714 3.31641 8.89583 3.31641 8.97321ZM4.24499 7.11607V7.8125C4.24499 7.88988 4.2063 7.92857 4.12891 7.92857H2.50391C2.42653 7.92857 2.38784 7.88988 2.38784 7.8125V7.11607C2.38784 7.03869 2.42653 7 2.50391 7H4.12891C4.2063 7 4.24499 7.03869 4.24499 7.11607ZM3.31641 5.25892V5.95535C3.31641 6.03273 3.27772 6.07142 3.20034 6.07142H2.50391C2.42653 6.07142 2.38784 6.03273 2.38784 5.95535V5.25892C2.38784 5.18154 2.42653 5.14285 2.50391 5.14285H3.20034C3.27772 5.14285 3.31641 5.18154 3.31641 5.25892ZM10.745 8.97321V9.66964C10.745 9.74702 10.7063 9.78571 10.6289 9.78571H4.36106C4.28368 9.78571 4.24499 9.74702 4.24499 9.66964V8.97321C4.24499 8.89583 4.28368 8.85714 4.36106 8.85714H10.6289C10.7063 8.85714 10.745 8.89583 10.745 8.97321ZM6.10213 7.11607V7.8125C6.10213 7.88988 6.06344 7.92857 5.98606 7.92857H5.28963C5.21225 7.92857 5.17356 7.88988 5.17356 7.8125V7.11607C5.17356 7.03869 5.21225 7 5.28963 7H5.98606C6.06344 7 6.10213 7.03869 6.10213 7.11607ZM5.17356 5.25892V5.95535C5.17356 6.03273 5.13487 6.07142 5.05749 6.07142H4.36106C4.28368 6.07142 4.24499 6.03273 4.24499 5.95535V5.25892C4.24499 5.18154 4.28368 5.14285 4.36106 5.14285H5.05749C5.13487 5.14285 5.17356 5.18154 5.17356 5.25892ZM7.95927 7.11607V7.8125C7.95927 7.88988 7.92058 7.92857 7.8432 7.92857H7.14677C7.06939 7.92857 7.0307 7.88988 7.0307 7.8125V7.11607C7.0307 7.03869 7.06939 7 7.14677 7H7.8432C7.92058 7 7.95927 7.03869 7.95927 7.11607ZM7.0307 5.25892V5.95535C7.0307 6.03273 6.99201 6.07142 6.91463 6.07142H6.2182C6.14082 6.07142 6.10213 6.03273 6.10213 5.95535V5.25892C6.10213 5.18154 6.14082 5.14285 6.2182 5.14285H6.91463C6.99201 5.14285 7.0307 5.18154 7.0307 5.25892ZM9.81641 7.11607V7.8125C9.81641 7.88988 9.77772 7.92857 9.70034 7.92857H9.00391C8.92653 7.92857 8.88784 7.88988 8.88784 7.8125V7.11607C8.88784 7.03869 8.92653 7 9.00391 7H9.70034C9.77772 7 9.81641 7.03869 9.81641 7.11607ZM12.6021 8.97321V9.66964C12.6021 9.74702 12.5634 9.78571 12.4861 9.78571H11.7896C11.7122 9.78571 11.6736 9.74702 11.6736 9.66964V8.97321C11.6736 8.89583 11.7122 8.85714 11.7896 8.85714H12.4861C12.5634 8.85714 12.6021 8.89583 12.6021 8.97321ZM8.88784 5.25892V5.95535C8.88784 6.03273 8.84915 6.07142 8.77177 6.07142H8.07534C7.99796 6.07142 7.95927 6.03273 7.95927 5.95535V5.25892C7.95927 5.18154 7.99796 5.14285 8.07534 5.14285H8.77177C8.84915 5.14285 8.88784 5.18154 8.88784 5.25892ZM10.745 5.25892V5.95535C10.745 6.03273 10.7063 6.07142 10.6289 6.07142H9.93249C9.85511 6.07142 9.81641 6.03273 9.81641 5.95535V5.25892C9.81641 5.18154 9.85511 5.14285 9.93249 5.14285H10.6289C10.7063 5.14285 10.745 5.18154 10.745 5.25892ZM12.6021 5.25892V7.8125C12.6021 7.88988 12.5634 7.92857 12.4861 7.92857H10.8611C10.7837 7.92857 10.745 7.88988 10.745 7.8125V7.11607C10.745 7.03869 10.7837 7 10.8611 7H11.6736V5.25892C11.6736 5.18154 11.7122 5.14285 11.7896 5.14285H12.4861C12.5634 5.14285 12.6021 5.18154 12.6021 5.25892ZM13.5307 10.7143V4.21428H1.45927V10.7143H13.5307ZM14.4593 4.21428V10.7143C14.4593 10.9706 14.3686 11.1894 14.1872 11.3708C14.0059 11.5522 13.787 11.6429 13.5307 11.6429H1.45927C1.20295 11.6429 0.984105 11.5522 0.802743 11.3708C0.621381 11.1894 0.530701 10.9706 0.530701 10.7143V4.21428C0.530701 3.95796 0.621381 3.73911 0.802743 3.55775C0.984105 3.37639 1.20295 3.28571 1.45927 3.28571H13.5307C13.787 3.28571 14.0059 3.37639 14.1872 3.55775C14.3686 3.73911 14.4593 3.95796 14.4593 4.21428Z" fill="#848484"/>
</g>
<defs>
<clipPath id="clip0_1_79">
<rect width="14.05" height="13" fill="white" transform="matrix(1 0 0 -1 0.469971 13.5)"/>
</clipPath>
</defs>
</svg>
