<svg width="13" height="14" viewBox="0 0 13 14" fill="none" xmlns="http://www.w3.org/2000/svg">
<g clip-path="url(#clip0_1_657)">
<path d="M11.8873 2.98005C11.5633 3.45401 11.1715 3.85784 10.7121 4.19155C10.7169 4.25925 10.7194 4.36082 10.7194 4.49623C10.7194 5.12495 10.6275 5.75246 10.4437 6.37877C10.2599 7.00507 9.98061 7.60598 9.60579 8.1815C9.23098 8.75702 8.78483 9.26604 8.26734 9.70857C7.74986 10.1511 7.12597 10.5041 6.39569 10.7677C5.66541 11.0313 4.88434 11.1631 4.0525 11.1631C2.74186 11.1631 1.54245 10.8125 0.454285 10.1112C0.623556 10.1305 0.812172 10.1402 1.02013 10.1402C2.1083 10.1402 3.07798 9.8065 3.92917 9.13909C3.42136 9.12942 2.96675 8.97345 2.56533 8.67118C2.16392 8.36891 1.88825 7.98321 1.73832 7.51409C1.89792 7.53827 2.04543 7.55036 2.18085 7.55036C2.38881 7.55036 2.59435 7.52376 2.79748 7.47056C2.25581 7.35933 1.80724 7.0897 1.45177 6.66169C1.0963 6.23368 0.91857 5.73675 0.91857 5.1709V5.14188C1.24744 5.32566 1.60049 5.4248 1.97772 5.43931C1.65853 5.22652 1.40462 4.94843 1.216 4.60505C1.02739 4.26167 0.933079 3.88928 0.933079 3.48786C0.933079 3.06227 1.03948 2.66811 1.25228 2.30539C1.83747 3.026 2.54962 3.60273 3.38872 4.03557C4.22782 4.46842 5.12616 4.70903 6.08375 4.75739C6.04506 4.57361 6.02571 4.39467 6.02571 4.22056C6.02571 3.5725 6.25423 3.01995 6.71126 2.56292C7.16829 2.10589 7.72084 1.87737 8.36891 1.87737C9.04599 1.87737 9.61667 2.12402 10.081 2.61733C10.6081 2.51576 11.1038 2.32715 11.5681 2.05148C11.3892 2.60765 11.0458 3.03809 10.538 3.34277C10.9878 3.29441 11.4375 3.1735 11.8873 2.98005Z" fill="black" fill-opacity="0.6"/>
</g>
<defs>
<clipPath id="clip0_1_657">
<rect width="12.08" height="13" fill="white" transform="matrix(1 0 0 -1 0.449997 13.02)"/>
</clipPath>
</defs>
</svg>
