<svg width="57" height="2" viewBox="0 0 57 2" fill="none" xmlns="http://www.w3.org/2000/svg">
<g clip-path="url(#clip0_1_148)">
<path d="M48.0128 1.69722C47.5509 1.63956 46.6323 1.59166 45.2572 1.55353C43.882 1.5154 41.9452 1.49335 39.4469 1.4874C38.0402 1.51493 36.3659 1.53641 34.4238 1.55185C32.4818 1.56729 30.4296 1.57501 28.2671 1.57501C26.1046 1.57501 24.0524 1.56729 22.1103 1.55185C20.1683 1.53641 18.494 1.51493 17.0873 1.4874C14.5889 1.49335 12.6522 1.5154 11.277 1.55353C9.90183 1.59166 8.9833 1.63956 8.52142 1.69722C10.7469 1.75303 13.5917 1.7972 17.0558 1.82976C20.52 1.86231 24.2571 1.87858 28.2671 1.87858C32.2771 1.87858 36.0142 1.86231 39.4783 1.82976C42.9425 1.7972 45.7873 1.75303 48.0128 1.69722ZM36.8172 1.45866C36.8172 1.45866 37.4077 1.4482 38.5887 1.42727C39.7696 1.40635 40.3601 1.36631 40.3601 1.30716C40.3601 1.248 39.1792 1.1975 36.8172 1.15565C34.4553 1.1138 31.6053 1.09287 28.2671 1.09287C24.9289 1.09287 22.0788 1.1138 19.7169 1.15565C17.355 1.1975 16.174 1.248 16.174 1.30716C16.174 1.36631 17.355 1.41681 19.7169 1.45866C22.0788 1.50051 24.9289 1.52144 28.2671 1.52144C31.6053 1.52144 34.4553 1.50051 36.8172 1.45866ZM54.2482 1.25582C54.2482 1.25582 54.6209 1.27125 55.3662 1.30213C56.1115 1.33301 56.4842 1.3823 56.4842 1.45001C56.4842 1.51772 55.7389 1.58236 54.2482 1.64393C52.7576 1.7055 50.7578 1.7587 48.2489 1.80353C45.7401 1.84836 42.743 1.88398 39.2579 1.91039C35.7727 1.93681 32.1091 1.95001 28.2671 1.95001C24.446 1.95001 20.7929 1.93681 17.3078 1.91039C13.8226 1.88398 10.8204 1.84845 8.30097 1.80381C5.78159 1.75916 3.77658 1.70596 2.28594 1.64421C0.795306 1.58245 0.0499878 1.51772 0.0499878 1.45001C0.0499878 1.3823 0.795306 1.31757 2.28594 1.25582C3.77658 1.19406 5.78159 1.14086 8.30097 1.09622C10.8204 1.05157 13.8226 1.01605 17.3078 0.989633C20.7929 0.963219 24.446 0.950012 28.2671 0.950012C32.0882 0.950012 35.7413 0.963219 39.2264 0.989633C42.7116 1.01605 45.7138 1.05157 48.2332 1.09622C50.7526 1.14086 52.7576 1.19406 54.2482 1.25582Z" fill="#6DAB3C"/>
</g>
<defs>
<clipPath id="clip0_1_148">
<rect width="56.4342" height="1" fill="white" transform="matrix(1 0 0 -1 0.0499878 1.95001)"/>
</clipPath>
</defs>
</svg>
