<svg width="57" height="2" viewBox="0 0 57 2" fill="none" xmlns="http://www.w3.org/2000/svg">
<g clip-path="url(#clip0_1_159)">
<path d="M29.6527 1.86856C29.2748 1.87525 28.813 1.8786 28.2671 1.8786C27.7212 1.8786 27.2593 1.87525 26.8814 1.86856L7.23023 1.53262C7.02028 1.52964 6.7316 1.52481 6.36419 1.51811C5.99678 1.51141 5.41418 1.49923 4.61637 1.48156C3.81857 1.46389 3.10474 1.44575 2.47489 1.42715C1.84505 1.40855 1.28344 1.38604 0.790057 1.35963C0.296677 1.33321 0.0499878 1.30754 0.0499878 1.28262C0.0499878 1.20077 1.38316 1.13679 4.04951 1.09065C6.71586 1.04452 10.4005 1.02146 15.1033 1.02146C16.405 1.02146 17.7329 1.02546 19.0871 1.03346C20.4412 1.04145 21.7009 1.05224 22.8662 1.06582C24.0314 1.0794 25.0339 1.09214 25.8737 1.10405C26.7135 1.11595 27.5113 1.1286 28.2671 1.14199C29.0229 1.1286 29.8207 1.11595 30.6605 1.10405C31.5003 1.09214 32.5028 1.0794 33.668 1.06582C34.8332 1.05224 36.0929 1.04145 37.4471 1.03346C38.8013 1.02546 40.1292 1.02146 41.4309 1.02146C46.1337 1.02146 49.8183 1.04452 52.4847 1.09065C55.151 1.13679 56.4842 1.20077 56.4842 1.28262C56.4842 1.36484 54.0803 1.44854 49.2724 1.53373L29.6527 1.86856Z" fill="#4CADC9"/>
</g>
<defs>
<clipPath id="clip0_1_159">
<rect width="56.4342" height="1" fill="white" transform="matrix(1 0 0 -1 0.0499878 1.95001)"/>
</clipPath>
</defs>
</svg>
