<svg width="12" height="14" viewBox="0 0 12 14" fill="none" xmlns="http://www.w3.org/2000/svg">
<g clip-path="url(#clip0_1_34)">
<path d="M11.3951 8.1607C11.3951 8.18488 11.3927 8.20181 11.3878 8.21148C11.0783 9.50761 10.4302 10.5583 9.44364 11.3635C8.45703 12.1688 7.30115 12.5714 5.976 12.5714C5.2699 12.5714 4.58677 12.4384 3.92662 12.1724C3.26646 11.9064 2.67764 11.5268 2.16016 11.0335L1.22433 11.9693C1.13244 12.0612 1.02362 12.1071 0.897879 12.1071C0.772135 12.1071 0.663318 12.0612 0.571429 11.9693C0.479539 11.8774 0.433594 11.7686 0.433594 11.6428V8.39284C0.433594 8.2671 0.479539 8.15828 0.571429 8.06639C0.663318 7.9745 0.772135 7.92855 0.897879 7.92855H4.14788C4.27362 7.92855 4.38244 7.9745 4.47433 8.06639C4.56622 8.15828 4.61217 8.2671 4.61217 8.39284C4.61217 8.51858 4.56622 8.6274 4.47433 8.71929L3.48047 9.71315C3.82385 10.0323 4.21317 10.279 4.64844 10.4531C5.08371 10.6272 5.5359 10.7143 6.00502 10.7143C6.65309 10.7143 7.25763 10.5571 7.81864 10.2427C8.37965 9.92837 8.82943 9.49552 9.16797 8.94418C9.22117 8.86196 9.34933 8.57904 9.55246 8.09541C9.59115 7.98417 9.66369 7.92855 9.77009 7.92855H11.1629C11.2258 7.92855 11.2802 7.95153 11.3262 7.99747C11.3721 8.04342 11.3951 8.09782 11.3951 8.1607ZM11.5765 2.35713V5.60713C11.5765 5.73287 11.5305 5.84169 11.4386 5.93358C11.3467 6.02547 11.2379 6.07141 11.1122 6.07141H7.86216C7.73642 6.07141 7.6276 6.02547 7.53571 5.93358C7.44382 5.84169 7.39788 5.73287 7.39788 5.60713C7.39788 5.48138 7.44382 5.37256 7.53571 5.28067L8.53683 4.27956C7.82106 3.61698 6.97712 3.2857 6.00502 3.2857C5.35696 3.2857 4.75242 3.44288 4.19141 3.75724C3.63039 4.0716 3.18062 4.50445 2.84208 5.05579C2.78888 5.138 2.66071 5.42093 2.45759 5.90456C2.4189 6.01579 2.34635 6.07141 2.23996 6.07141H0.796317C0.733445 6.07141 0.679036 6.04844 0.633092 6.00249C0.587147 5.95655 0.564174 5.90214 0.564174 5.83927V5.78849C0.878534 4.49236 1.53144 3.44167 2.52288 2.63642C3.51432 1.83118 4.67504 1.42855 6.00502 1.42855C6.71112 1.42855 7.39788 1.56276 8.06529 1.83118C8.7327 2.09959 9.32515 2.47803 9.84263 2.9665L10.7857 2.03067C10.8776 1.93878 10.9864 1.89284 11.1122 1.89284C11.2379 1.89284 11.3467 1.93878 11.4386 2.03067C11.5305 2.12256 11.5765 2.23138 11.5765 2.35713Z" fill="#848484"/>
</g>
<defs>
<clipPath id="clip0_1_34">
<rect width="11.25" height="13" fill="white" transform="matrix(1 0 0 -1 0.380005 13.5)"/>
</clipPath>
</defs>
</svg>
