<svg width="57" height="2" viewBox="0 0 57 2" fill="none" xmlns="http://www.w3.org/2000/svg">
<g clip-path="url(#clip0_1_469)">
<path d="M22.941 1.14948L38.1833 1.00997L22.941 0.868792V1.14948ZM28.7671 0.668457C32.2942 0.668457 35.7007 0.669294 38.9864 0.670968C42.272 0.672642 44.6812 0.674409 46.2138 0.67627L48.5128 0.678502C48.5338 0.678502 48.7122 0.678781 49.0481 0.679339C49.3841 0.679897 49.6255 0.680455 49.7725 0.681013C49.9194 0.681571 50.1661 0.682408 50.5125 0.683524C50.8589 0.68464 51.1581 0.686128 51.4101 0.687988C51.662 0.689848 51.9559 0.692267 52.2918 0.695243C52.6278 0.698219 52.9532 0.701846 53.2681 0.706124C53.583 0.710403 53.8875 0.715332 54.1814 0.720912C54.3074 0.723145 54.4701 0.726586 54.6695 0.731236C54.869 0.735886 55.1734 0.746768 55.5828 0.763881C55.9922 0.780994 56.2704 0.799781 56.4173 0.820243C56.5853 0.844052 56.7165 0.869443 56.811 0.896415C56.9055 0.923386 56.9632 0.944499 56.9842 0.959752V0.982073V1.05797C57.0052 1.11191 56.8162 1.16585 56.4173 1.2198C56.2704 1.24026 56.0079 1.25877 55.63 1.27532C55.2521 1.29188 54.9162 1.30332 54.6223 1.30964L54.1814 1.31913C53.8875 1.32471 53.583 1.32964 53.2681 1.33391C52.9532 1.33819 52.6278 1.34173 52.2918 1.34452C51.9559 1.34731 51.662 1.34963 51.4101 1.35149C51.1581 1.35335 50.8589 1.35484 50.5125 1.35596C50.1661 1.35707 49.9142 1.35791 49.7567 1.35847C49.5993 1.35903 49.3578 1.35958 49.0324 1.36014C48.707 1.3607 48.5338 1.36098 48.5128 1.36098C43.2431 1.36805 36.6612 1.37158 28.7671 1.37158C24.4212 1.37084 20.6473 1.36963 17.4456 1.36795C14.2439 1.36628 12.1392 1.36489 11.1314 1.36377L9.58829 1.36154L8.45457 1.35931C7.69876 1.35745 7.12665 1.35559 6.73824 1.35372C6.34984 1.35186 5.81447 1.34796 5.13213 1.34201C4.4498 1.33605 3.8567 1.32843 3.35282 1.31913C3.22685 1.31689 3.06414 1.31345 2.86469 1.3088C2.66524 1.30415 2.36081 1.29327 1.95141 1.27616C1.54201 1.25904 1.26383 1.24026 1.11687 1.2198C0.948908 1.19599 0.817691 1.1706 0.723214 1.14362C0.628737 1.11665 0.571001 1.09554 0.550006 1.08029V1.05797V0.982073C0.529011 0.92813 0.717965 0.874186 1.11687 0.820243C1.26383 0.799781 1.52627 0.781273 1.90417 0.764718C2.28208 0.748163 2.618 0.736723 2.91193 0.730399L3.35282 0.720912C3.64675 0.715332 3.95117 0.710403 4.2661 0.706124C4.58102 0.701846 4.90644 0.698219 5.24236 0.695243C5.57828 0.692267 5.8722 0.689848 6.12414 0.687988C6.37608 0.686128 6.67526 0.68464 7.02167 0.683524C7.36809 0.682408 7.61478 0.681571 7.76174 0.681013C7.90871 0.680455 8.15015 0.679897 8.48606 0.679339C8.82198 0.678781 9.00044 0.678502 9.02143 0.678502C14.2911 0.671805 20.873 0.668457 28.7671 0.668457Z" fill="#DD3333"/>
</g>
<defs>
<clipPath id="clip0_1_469">
<rect width="56.4342" height="1" fill="white" transform="matrix(1 0 0 -1 0.550003 1.52002)"/>
</clipPath>
</defs>
</svg>
