<svg width="14" height="14" viewBox="0 0 14 14" fill="none" xmlns="http://www.w3.org/2000/svg">
<g clip-path="url(#clip0_1_63)">
<path d="M11.4107 9.32142C11.4107 9.12797 11.343 8.96354 11.2076 8.82812L9.69867 7.31919C9.56325 7.18378 9.39882 7.11607 9.20537 7.11607C9.00224 7.11607 8.82813 7.19345 8.68304 7.34821C8.69755 7.36272 8.7435 7.40745 8.82088 7.48242C8.89826 7.55738 8.95025 7.60937 8.97685 7.63839C9.00345 7.66741 9.03972 7.71335 9.08567 7.77622C9.13161 7.8391 9.16305 7.90076 9.17998 7.96121C9.1969 8.02167 9.20537 8.08817 9.20537 8.16071C9.20537 8.35416 9.13766 8.5186 9.00224 8.65401C8.86682 8.78943 8.70239 8.85714 8.50894 8.85714C8.43639 8.85714 8.36989 8.84867 8.30944 8.83175C8.24899 8.81482 8.18732 8.78338 8.12445 8.73744C8.06158 8.69149 8.01563 8.65522 7.98662 8.62862C7.9576 8.60202 7.90561 8.55003 7.83065 8.47265C7.75568 8.39527 7.71095 8.34933 7.69644 8.33482C7.53684 8.48474 7.45704 8.66127 7.45704 8.86439C7.45704 9.05785 7.52475 9.22228 7.66017 9.3577L9.15458 10.8594C9.28517 10.99 9.4496 11.0552 9.64789 11.0552C9.84134 11.0552 10.0058 10.9924 10.1412 10.8666L11.2076 9.80747C11.343 9.67206 11.4107 9.51004 11.4107 9.32142ZM6.31083 4.20703C6.31083 4.01357 6.24313 3.84914 6.10771 3.71372L4.61329 2.21205C4.47787 2.07663 4.31344 2.00892 4.11999 2.00892C3.93137 2.00892 3.76694 2.07421 3.62668 2.20479L2.56028 3.26395C2.42486 3.39936 2.35715 3.56138 2.35715 3.75C2.35715 3.94345 2.42486 4.10788 2.56028 4.2433L4.06921 5.75223C4.19979 5.88281 4.36422 5.9481 4.56251 5.9481C4.76563 5.9481 4.93974 5.87314 5.08483 5.72321C5.07032 5.7087 5.02438 5.66396 4.947 5.589C4.86961 5.51404 4.81762 5.46205 4.79102 5.43303C4.76442 5.40401 4.72815 5.35807 4.68221 5.2952C4.63626 5.23232 4.60483 5.17066 4.5879 5.11021C4.57097 5.04975 4.56251 4.98325 4.56251 4.91071C4.56251 4.71726 4.63022 4.55282 4.76563 4.41741C4.90105 4.28199 5.06549 4.21428 5.25894 4.21428C5.33148 4.21428 5.39798 4.22274 5.45844 4.23967C5.51889 4.2566 5.58055 4.28803 5.64342 4.33398C5.7063 4.37992 5.75224 4.4162 5.78126 4.4428C5.81028 4.4694 5.86227 4.52139 5.93723 4.59877C6.01219 4.67615 6.05693 4.72209 6.07144 4.7366C6.23104 4.58668 6.31083 4.41015 6.31083 4.20703ZM12.1942 7.84151C12.6005 8.24776 12.8036 8.74107 12.8036 9.32142C12.8036 9.90178 12.598 10.3927 12.187 10.7941L11.1205 11.8532C10.7191 12.2546 10.2282 12.4554 9.64789 12.4554C9.0627 12.4554 8.56939 12.2498 8.16798 11.8387L6.67356 10.337C6.27214 9.93564 6.07144 9.44475 6.07144 8.86439C6.07144 8.26953 6.28424 7.76413 6.70983 7.34821L6.07144 6.70982C5.65551 7.13541 5.15254 7.34821 4.56251 7.34821C3.98215 7.34821 3.48885 7.14508 3.0826 6.73883L1.57367 5.22991C1.16742 4.82366 0.964294 4.33035 0.964294 3.75C0.964294 3.16964 1.16984 2.67875 1.58092 2.27734L2.64733 1.21819C3.04874 0.816773 3.53963 0.616067 4.11999 0.616067C4.70518 0.616067 5.19848 0.82161 5.5999 1.2327L7.09432 2.73437C7.49573 3.13578 7.69644 3.62667 7.69644 4.20703C7.69644 4.80189 7.48364 5.30729 7.05804 5.72321L7.69644 6.3616C8.11236 5.93601 8.61534 5.72321 9.20537 5.72321C9.78572 5.72321 10.279 5.92633 10.6853 6.33258L12.1942 7.84151Z" fill="#848484"/>
</g>
<defs>
<clipPath id="clip0_1_63">
<rect width="12.19" height="13" fill="white" transform="matrix(1 0 0 -1 0.905029 13.5)"/>
</clipPath>
</defs>
</svg>
