<svg width="53" height="2" viewBox="0 0 53 2" fill="none" xmlns="http://www.w3.org/2000/svg">
<g clip-path="url(#clip0_1_486)">
<path d="M8.50971 1.30901H16.4141V0.921833H8.50971V1.30901ZM16.9274 0.802443C16.9046 0.783103 16.4939 0.76711 15.6955 0.754464C14.8971 0.741818 13.8363 0.735495 12.5132 0.735495C11.1901 0.735495 10.1123 0.741818 9.27962 0.754464C8.44698 0.76711 8.03066 0.783103 8.03066 0.802443C8.03066 0.821411 8.43557 0.837311 9.2454 0.850143C10.0552 0.862975 11.1103 0.86939 12.4106 0.86939H12.4448C13.7907 0.86939 14.8743 0.862975 15.6955 0.850143C16.5167 0.837311 16.9274 0.821411 16.9274 0.802443ZM36.9449 1.30901H44.8493V1.08697C44.8493 1.02969 44.0167 0.986363 42.3514 0.95698C40.6861 0.927598 38.4848 0.912906 35.7473 0.912906C32.6449 0.912906 30.261 0.934664 28.5957 0.97818H28.6642V0.921833H20.7598C20.8282 0.94638 20.8282 1.07544 20.7598 1.30901H28.6642V1.09255C28.6642 1.07842 28.744 1.068 28.9037 1.06131C29.2459 1.04829 29.7591 1.03722 30.4435 1.02811C31.1279 1.019 31.9719 1.01444 32.9756 1.01444C35.6218 1.01444 36.9449 1.04364 36.9449 1.10203V1.30901ZM52.959 0.752232V1.28781C52.959 1.33207 51.9952 1.36992 50.0676 1.40134C48.14 1.43277 45.8188 1.44849 43.1042 1.44849H10.2548C7.5402 1.44849 5.21907 1.43277 3.29145 1.40134C1.36383 1.36992 0.400024 1.33207 0.400024 1.28781V0.752232C0.400024 0.707973 1.36383 0.670129 3.29145 0.638701C5.21907 0.607272 7.5402 0.591558 10.2548 0.591558H43.1042C45.8188 0.591558 48.14 0.607272 50.0676 0.638701C51.9952 0.670129 52.959 0.707973 52.959 0.752232Z" fill="#5472D2"/>
</g>
<defs>
<clipPath id="clip0_1_486">
<rect width="52.559" height="1" fill="white" transform="matrix(1 0 0 -1 0.400024 1.52002)"/>
</clipPath>
</defs>
</svg>
