<svg width="13" height="14" viewBox="0 0 13 14" fill="none" xmlns="http://www.w3.org/2000/svg">
<g clip-path="url(#clip0_1_663)">
<path d="M5.15792 8.20306L8.66908 6.38944L5.15792 4.55406V8.20306ZM6.5 1.94971C7.3125 1.94971 8.09719 1.96059 8.85407 1.98235C9.61095 2.00412 10.1659 2.02709 10.519 2.05127L11.0485 2.08029C11.0534 2.08029 11.0945 2.08391 11.1719 2.09117C11.2493 2.09842 11.3049 2.10568 11.3387 2.11293C11.3726 2.12019 11.4294 2.13107 11.5092 2.14558C11.589 2.16009 11.6579 2.17943 11.716 2.20361C11.774 2.2278 11.8417 2.25923 11.9191 2.29792C11.9965 2.33661 12.0714 2.38377 12.144 2.43938C12.2165 2.495 12.2866 2.55908 12.3543 2.63163C12.3834 2.66064 12.4208 2.70538 12.4668 2.76583C12.5127 2.82629 12.5829 2.96775 12.6772 3.19022C12.7715 3.41269 12.8356 3.65692 12.8694 3.92292C12.9081 4.23245 12.9383 4.56252 12.9601 4.91316C12.9819 5.26379 12.9952 5.53825 13 5.73654V6.02672V7.01332C13.0048 7.71459 12.9613 8.41585 12.8694 9.11712C12.8356 9.38311 12.7751 9.62372 12.6881 9.83894C12.601 10.0542 12.5236 10.2029 12.4559 10.2851L12.3543 10.4084C12.2866 10.481 12.2165 10.545 12.144 10.6007C12.0714 10.6563 11.9965 10.7022 11.9191 10.7385C11.8417 10.7748 11.774 10.805 11.716 10.8292C11.6579 10.8534 11.589 10.8727 11.5092 10.8872C11.4294 10.9017 11.3714 10.9126 11.3351 10.9199C11.2988 10.9271 11.2432 10.9344 11.1682 10.9416C11.0933 10.9489 11.0534 10.9525 11.0485 10.9525C9.83463 11.0444 8.31845 11.0903 6.5 11.0903C5.49888 11.0807 4.62955 11.0649 3.89202 11.0432C3.15448 11.0214 2.66964 11.0033 2.4375 10.9888L2.08203 10.9598L1.82087 10.9307C1.64676 10.9066 1.51497 10.8824 1.4255 10.8582C1.33603 10.834 1.2127 10.7832 1.05552 10.7058C0.898341 10.6285 0.761715 10.5293 0.645644 10.4084C0.616626 10.3794 0.579145 10.3347 0.5332 10.2742C0.487255 10.2138 0.417128 10.0723 0.32282 9.84982C0.228512 9.62735 0.164431 9.38311 0.130577 9.11712C0.0918864 8.80759 0.0616595 8.47752 0.0398961 8.12688C0.0181327 7.77625 0.00483282 7.50179 -3.4877e-06 7.3035V7.01332V6.02672C-0.0048398 5.32545 0.038687 4.62419 0.130577 3.92292C0.164431 3.65692 0.224885 3.41632 0.311938 3.2011C0.398992 2.98589 0.476373 2.83717 0.544081 2.75495L0.645644 2.63163C0.713352 2.55908 0.783479 2.495 0.856023 2.43938C0.928568 2.38377 1.00353 2.33661 1.08091 2.29792C1.15829 2.25923 1.226 2.2278 1.28404 2.20361C1.34207 2.17943 1.41099 2.16009 1.49079 2.14558C1.57059 2.13107 1.62741 2.12019 1.66127 2.11293C1.69512 2.10568 1.75074 2.09842 1.82812 2.09117C1.9055 2.08391 1.94661 2.08029 1.95145 2.08029C3.16536 1.99323 4.68154 1.94971 6.5 1.94971Z" fill="black" fill-opacity="0.6"/>
</g>
<defs>
<clipPath id="clip0_1_663">
<rect width="13" height="13" fill="white" transform="matrix(1 0 0 -1 0 13.02)"/>
</clipPath>
</defs>
</svg>
