<svg width="32" height="33" viewBox="0 0 32 33" fill="none" xmlns="http://www.w3.org/2000/svg">
<path fill-rule="evenodd" clip-rule="evenodd" d="M18.19 11.587C17.955 11.381 17.65 11.25 17.312 11.25C16.588 11.25 16 11.838 16 12.563C16 12.95 16.17 13.293 16.438 13.535L18.268 15.187H10.31C9.588 15.187 9 15.775 9 16.5C9 17.225 9.588 17.813 10.313 17.813H18.267L16.434 19.463C16.171 19.706 16 20.05 16 20.437C16 21.162 16.588 21.75 17.313 21.75C17.65 21.75 17.955 21.62 18.188 21.41L22.566 17.476C22.829 17.232 23 16.888 23 16.5C23 16.112 22.83 15.768 22.562 15.528L18.192 11.588L18.19 11.587ZM16 2.5C8.268 2.5 2 8.768 2 16.5C2 24.232 8.268 30.5 16 30.5C23.732 30.5 30 24.232 30 16.5C30 8.768 23.732 2.5 16 2.5ZM16 27.875C9.718 27.875 4.625 22.782 4.625 16.5C4.625 10.218 9.718 5.125 16 5.125C22.282 5.125 27.375 10.218 27.375 16.5C27.375 22.782 22.282 27.875 16 27.875Z" fill="#0B4A75"/>
</svg>
