<svg width="32" height="33" viewBox="0 0 32 33" fill="none" xmlns="http://www.w3.org/2000/svg">
<path fill-rule="evenodd" clip-rule="evenodd" d="M21.688 15.188H13.733L15.566 13.538L15.562 13.535C15.829 13.295 16 12.95 16 12.562C16 11.838 15.412 11.25 14.687 11.25C14.35 11.25 14.045 11.38 13.813 11.59L13.809 11.587L9.433 15.524L9.437 15.528C9.17 15.768 9 16.112 9 16.5C9 16.888 9.17 17.232 9.438 17.472L9.434 17.476L13.809 21.413L13.811 21.41C14.044 21.62 14.349 21.75 14.687 21.75C15.411 21.75 15.999 21.162 15.999 20.437C15.999 20.05 15.829 19.707 15.561 19.465L15.565 19.462L13.732 17.812H21.686C22.411 17.812 22.999 17.225 22.999 16.5C22.999 15.775 22.411 15.187 21.686 15.187L21.688 15.188ZM16 2.5C8.268 2.5 2 8.768 2 16.5C2 24.232 8.268 30.5 16 30.5C23.732 30.5 30 24.232 30 16.5C30 8.768 23.732 2.5 16 2.5ZM16 27.875C9.718 27.875 4.625 22.782 4.625 16.5C4.625 10.218 9.718 5.125 16 5.125C22.282 5.125 27.375 10.218 27.375 16.5C27.375 22.782 22.282 27.875 16 27.875Z" fill="#0B4A75"/>
</svg>
