<svg width="18" height="19" viewBox="0 0 18 19" fill="none" xmlns="http://www.w3.org/2000/svg">
<g clip-path="url(#clip0_1_555)">
<path d="M16.3125 0.52002H5.0625C4.13051 0.52002 3.375 1.27553 3.375 2.20752V3.89502H1.6875C0.755508 3.89502 0 4.65053 0 5.58252V16.8325C0 17.7645 0.755508 18.52 1.6875 18.52H12.9375C13.8695 18.52 14.625 17.7645 14.625 16.8325V15.145H16.3125C17.2445 15.145 18 14.3895 18 13.4575V2.20752C18 1.27553 17.2445 0.52002 16.3125 0.52002ZM12.7266 16.8325H1.89844C1.84249 16.8325 1.78884 16.8103 1.74928 16.7707C1.70972 16.7312 1.6875 16.6775 1.6875 16.6216V5.79346C1.6875 5.73751 1.70972 5.68386 1.74928 5.6443C1.78884 5.60474 1.84249 5.58252 1.89844 5.58252H3.375V13.4575C3.375 14.3895 4.13051 15.145 5.0625 15.145H12.9375V16.6216C12.9375 16.6775 12.9153 16.7312 12.8757 16.7707C12.8362 16.8103 12.7825 16.8325 12.7266 16.8325ZM16.1016 13.4575H5.27344C5.21749 13.4575 5.16384 13.4353 5.12428 13.3957C5.08472 13.3562 5.0625 13.3025 5.0625 13.2466V2.41846C5.0625 2.36251 5.08472 2.30886 5.12428 2.2693C5.16384 2.22974 5.21749 2.20752 5.27344 2.20752H16.1016C16.1575 2.20752 16.2112 2.22974 16.2507 2.2693C16.2903 2.30886 16.3125 2.36251 16.3125 2.41846V13.2466C16.3125 13.3025 16.2903 13.3562 16.2507 13.3957C16.2112 13.4353 16.1575 13.4575 16.1016 13.4575Z" fill="white" fill-opacity="0.9"/>
</g>
<defs>
<clipPath id="clip0_1_555">
<rect width="18" height="18" fill="white" transform="translate(0 0.52002)"/>
</clipPath>
</defs>
</svg>
