<svg width="28" height="29" viewBox="0 0 28 29" fill="none" xmlns="http://www.w3.org/2000/svg">
<path d="M18.0136 17.5594L22.2246 21.7704L21.0731 22.9219L16.8621 18.3161C15.612 19.3473 14.208 19.8622 12.6512 19.8622C10.7647 19.8622 9.14748 19.1878 7.79867 17.839C6.44986 16.4902 5.77545 14.8618 5.77545 12.9537C5.77545 11.0455 6.44986 9.42281 7.79867 8.08472C9.14748 6.7475 10.7647 6.07812 12.6512 6.07812C14.5594 6.07812 16.1877 6.7475 17.5365 8.08494C18.8854 9.42303 19.5598 11.0457 19.5598 12.9539C19.5598 14.7522 19.0442 16.2878 18.0136 17.5594ZM8.86792 16.7536C9.92055 17.7957 11.1816 18.3163 12.6512 18.3163C14.1203 18.3163 15.3816 17.7957 16.4345 16.7536C17.4871 15.7121 18.0136 14.4455 18.0136 12.9539C18.0136 11.4847 17.4873 10.2289 16.4345 9.187C15.3819 8.14553 14.1203 7.62425 12.6512 7.62425C11.1816 7.62425 9.92076 8.14553 8.86792 9.187C7.8153 10.2289 7.28876 11.4847 7.28876 12.9539C7.28876 14.4455 7.8153 15.7121 8.86792 16.7536Z" fill="white"/>
</svg>
